<svg width="131" height="131" viewBox="0 0 131 131" fill="none" xmlns="http://www.w3.org/2000/svg">
<path d="M35.5391 43.8858L40.744 39.572V37.0352L60.5338 48.4733C60.6167 48.5222 60.6795 48.5989 60.711 48.6897C60.7424 48.7805 60.7405 48.8795 60.7056 48.9691C60.686 49.0198 60.6564 49.066 60.6186 49.1051C60.5808 49.1442 60.5354 49.1753 60.4853 49.1966C60.4352 49.2179 60.3814 49.2289 60.3269 49.2291C60.2724 49.2293 60.2185 49.2185 60.1683 49.1975L40.7967 41.2663L35.5391 44.0558V43.8858Z" fill="#54B7C5"/>
<path d="M35.5391 49.1703L40.744 44.8564V42.3164L60.5338 52.8078C60.6167 52.8567 60.6795 52.9334 60.711 53.0242C60.7424 53.115 60.7405 53.214 60.7056 53.3036C60.6861 53.3543 60.6566 53.4007 60.6188 53.4398C60.581 53.479 60.5356 53.5101 60.4855 53.5314C60.4354 53.5527 60.3814 53.5638 60.327 53.5639C60.2724 53.564 60.2185 53.5532 60.1683 53.532L40.7967 46.5498L35.5391 49.337V49.1703Z" fill="#54B7C5"/>
<path d="M35.6875 54.1053L40.7477 49.9016V47.3652L60.5375 57.8566C60.6204 57.9056 60.6832 57.9823 60.7147 58.0731C60.7461 58.1639 60.7442 58.2629 60.7093 58.3524C60.6896 58.403 60.6599 58.4491 60.622 58.488C60.5841 58.5269 60.5387 58.5578 60.4886 58.5789C60.4385 58.6 60.3846 58.6108 60.3302 58.6108C60.2759 58.6107 60.222 58.5998 60.172 58.5786L40.8003 51.5973L35.6875 54.2785V54.1053Z" fill="#54B7C5"/>
<path d="M35.5391 59.2224L40.744 54.947V52.4102L60.5338 62.9016C60.6167 62.9505 60.6795 63.0272 60.711 63.118C60.7424 63.2088 60.7405 63.3078 60.7056 63.3973C60.6861 63.448 60.6565 63.4943 60.6187 63.5334C60.5809 63.5726 60.5355 63.6037 60.4854 63.625C60.4353 63.6463 60.3814 63.6574 60.3269 63.6575C60.2724 63.6576 60.2185 63.6468 60.1683 63.6258L40.7967 56.6435L35.5391 59.3947V59.2224Z" fill="#54B7C5"/>
<path d="M35.54 63.8081L40.7449 60.3913V57.8535L60.5348 67.4864C60.6177 67.5353 60.6804 67.612 60.7119 67.7028C60.7434 67.7936 60.7415 67.8926 60.7065 67.9821C60.687 68.0329 60.6575 68.0792 60.6197 68.1184C60.5819 68.1575 60.5366 68.1887 60.4864 68.21C60.4363 68.2313 60.3824 68.2423 60.3279 68.2424C60.2734 68.2425 60.2194 68.2317 60.1692 68.2106L40.7967 62.0878L35.5391 63.9804L35.54 63.8081Z" fill="#54B7C5"/>
<path d="M35.5391 68.9224L40.744 65.5833V63.0469L60.5338 72.6112C60.6167 72.6602 60.6794 72.737 60.7109 72.8279C60.7423 72.9188 60.7405 73.0178 60.7056 73.1074C60.6861 73.1582 60.6566 73.2045 60.6188 73.2436C60.581 73.2828 60.5356 73.3139 60.4855 73.3353C60.4354 73.3566 60.3814 73.3676 60.3269 73.3677C60.2724 73.3678 60.2185 73.357 60.1683 73.3359L40.7967 67.2789L35.5391 69.0924V68.9224Z" fill="#54B7C5"/>
<path d="M35.5391 73.8117L40.744 70.6653V68.1289L60.5338 77.5008C60.6167 77.5498 60.6795 77.6265 60.711 77.7173C60.7424 77.8081 60.7405 77.9071 60.7056 77.9966C60.6861 78.0473 60.6565 78.0936 60.6187 78.1327C60.5809 78.1718 60.5355 78.203 60.4854 78.2243C60.4353 78.2456 60.3814 78.2566 60.3269 78.2568C60.2724 78.2569 60.2185 78.2461 60.1683 78.2251L40.7967 72.3609L35.5391 73.9816V73.8117Z" fill="#54B7C5"/>
<path d="M35.5391 79.037L40.744 75.9016V73.3652L60.5338 82.7372C60.6167 82.7861 60.6795 82.8628 60.711 82.9536C60.7424 83.0444 60.7405 83.1434 60.7056 83.2329C60.686 83.2836 60.6564 83.3299 60.6186 83.369C60.5808 83.408 60.5354 83.4391 60.4853 83.4604C60.4352 83.4817 60.3814 83.4928 60.3269 83.493C60.2724 83.4931 60.2185 83.4824 60.1683 83.4614L40.7967 77.5991L35.5391 79.2079V79.037Z" fill="#54B7C5"/>
<path d="M35.5391 83.7179L40.744 81.5247V78.9883L60.4912 87.5784C60.5741 87.6275 60.6368 87.7043 60.6683 87.7951C60.6997 87.886 60.6979 87.985 60.663 88.0747C60.6432 88.1252 60.6135 88.1712 60.5756 88.2101C60.5377 88.249 60.4923 88.2798 60.4422 88.3009C60.3921 88.322 60.3383 88.3329 60.2839 88.3329C60.2296 88.3328 60.1757 88.3219 60.1257 88.3008L40.7967 83.2208L35.5391 83.8888V83.7179Z" fill="#54B7C5"/>
<path d="M35.5391 88.8321L40.744 86.781V84.2441L60.5201 92.7987C60.6031 92.8475 60.6659 92.9242 60.6974 93.015C60.7288 93.1058 60.7269 93.2049 60.6919 93.2944C60.6723 93.3451 60.6428 93.3913 60.605 93.4304C60.5672 93.4695 60.5219 93.5006 60.4719 93.5219C60.4218 93.5432 60.368 93.5542 60.3135 93.5544C60.2591 93.5546 60.2052 93.5439 60.155 93.5229L40.7967 88.4762L35.5391 89.003V88.8321Z" fill="#54B7C5"/>
<path d="M35.5469 94.3393L40.7454 92.0364V89.5L60.5192 96.8533C60.6022 96.9021 60.665 96.9788 60.6965 97.0696C60.728 97.1605 60.726 97.2595 60.691 97.349C60.6714 97.3997 60.6418 97.446 60.604 97.485C60.5661 97.5241 60.5208 97.5552 60.4707 97.5765C60.4206 97.5978 60.3667 97.6089 60.3123 97.609C60.2578 97.6092 60.2039 97.5985 60.1536 97.5775L40.7981 93.732L35.5469 94.5088V94.3393Z" fill="#54B7C5"/>
<path d="M60.2214 101.06C59.5434 101.238 58.8609 101.403 58.1829 101.563H58.1783L40.798 98.7161L35.5391 99.1411V98.972L40.7431 97.021V94.4805L60.2214 101.06Z" fill="#54B7C5"/>
<path d="M89.2181 44.6621C89.1974 44.7146 89.1665 44.7625 89.1271 44.8029C89.0877 44.8434 89.0406 44.8756 88.9886 44.8977C88.9365 44.9198 88.8806 44.9314 88.8241 44.9317C88.7675 44.9321 88.7115 44.9212 88.6592 44.8997L68.4112 36.6111L62.9141 39.5263V39.3481L68.3563 34.8382V32.1881L70.8804 33.6457L71.9249 4.30664L73.0151 34.8794L89.0394 44.1412C89.1267 44.1924 89.1927 44.2731 89.2254 44.3687C89.2582 44.4642 89.2556 44.5683 89.2181 44.6621Z" fill="#163F75"/>
<path d="M62.915 44.8715L68.3544 40.363V37.7129L89.0385 48.679C89.1251 48.7302 89.1908 48.8103 89.2237 48.9052C89.2565 49.0001 89.2546 49.1036 89.2181 49.1972C89.1974 49.25 89.1664 49.2982 89.1268 49.3389C89.0871 49.3795 89.0398 49.4118 88.9874 49.4339C88.935 49.456 88.8788 49.4673 88.8219 49.4673C88.7651 49.4673 88.7088 49.456 88.6564 49.4339L68.4085 42.1373L62.9141 45.0524L62.915 44.8715Z" fill="#163F75"/>
<path d="M63.0712 50.0321L68.3595 45.6365V42.9863L89.0436 53.9525C89.1302 54.0037 89.1958 54.084 89.2287 54.179C89.2616 54.2739 89.2596 54.3774 89.2232 54.4711C89.2025 54.5239 89.1714 54.572 89.1318 54.6126C89.0921 54.6533 89.0448 54.6856 88.9924 54.7076C88.9401 54.7297 88.8838 54.7411 88.827 54.7411C88.7702 54.7411 88.7139 54.7298 88.6615 54.7078L68.4136 47.4107L63.0703 50.213L63.0712 50.0321Z" fill="#163F75"/>
<path d="M62.915 55.3806L68.3544 50.9119V48.2617L89.0385 59.2279C89.1251 59.279 89.1908 59.3592 89.2237 59.4541C89.2565 59.549 89.2546 59.6524 89.2181 59.746C89.1975 59.7989 89.1665 59.8471 89.1269 59.8878C89.0873 59.9285 89.0399 59.9609 88.9875 59.983C88.9351 60.0051 88.8789 60.0165 88.822 60.0165C88.7651 60.0166 88.7088 60.0052 88.6564 59.9832L68.4085 52.6861L62.9141 55.5615L62.915 55.3806Z" fill="#163F75"/>
<path d="M62.9141 60.1683L68.3535 56.5974V53.9473L89.0362 64.0133C89.1228 64.0646 89.1884 64.1448 89.2213 64.2398C89.2542 64.3347 89.2522 64.4382 89.2158 64.5319C89.1951 64.5847 89.164 64.6328 89.1244 64.6734C89.0848 64.7141 89.0374 64.7464 88.985 64.7684C88.9327 64.7905 88.8764 64.8019 88.8196 64.8019C88.7628 64.8019 88.7065 64.7906 88.6542 64.7686L68.4062 58.3694L62.9141 60.3465V60.1683Z" fill="#163F75"/>
<path d="M62.9164 65.5151L68.3558 62.0252V59.375L89.0385 69.3702C89.1251 69.4215 89.1907 69.5017 89.2236 69.5967C89.2565 69.6916 89.2545 69.7951 89.2181 69.8888C89.1974 69.9416 89.1663 69.9897 89.1267 70.0303C89.0871 70.071 89.0397 70.1032 88.9873 70.1253C88.935 70.1474 88.8787 70.1588 88.8219 70.1588C88.7651 70.1588 88.7088 70.1475 88.6565 70.1255L68.4085 63.7971L62.9141 65.6933L62.9164 65.5151Z" fill="#163F75"/>
<path d="M62.9164 70.6275L68.3558 67.3377V64.6875L89.0385 74.4807C89.1251 74.5318 89.1908 74.612 89.2237 74.7069C89.2565 74.8018 89.2546 74.9053 89.2181 74.9989C89.1974 75.0517 89.1664 75.0999 89.1268 75.1405C89.0871 75.1812 89.0398 75.2135 88.9874 75.2356C88.935 75.2577 88.8788 75.269 88.8219 75.269C88.7651 75.269 88.7088 75.2576 88.6564 75.2356L68.4085 69.1087L62.9141 70.8039L62.9164 70.6275Z" fill="#163F75"/>
<path d="M62.9164 76.0851L68.3558 72.8103V70.1602L89.0385 79.9543C89.1251 80.0054 89.1908 80.0856 89.2237 80.1805C89.2565 80.2754 89.2546 80.3789 89.2181 80.4725C89.1974 80.5253 89.1664 80.5735 89.1268 80.6141C89.0871 80.6548 89.0398 80.6871 88.9874 80.7092C88.935 80.7312 88.8788 80.7426 88.8219 80.7426C88.7651 80.7426 88.7088 80.7312 88.6564 80.7091L68.4085 74.5823L62.9141 76.2637L62.9164 76.0851Z" fill="#163F75"/>
<path d="M62.9164 80.9787L68.3558 78.6873V76.0371L88.9927 85.0161C89.0793 85.0673 89.1448 85.1475 89.1777 85.2423C89.2106 85.3372 89.2087 85.4407 89.1723 85.5343C89.1517 85.5871 89.1207 85.6353 89.0811 85.676C89.0414 85.7167 88.994 85.7491 88.9417 85.7711C88.8893 85.7932 88.833 85.8046 88.7761 85.8045C88.7193 85.8045 88.663 85.7931 88.6106 85.7709L68.4085 80.4592L62.9141 81.1574L62.9164 80.9787Z" fill="#163F75"/>
<path d="M62.9141 86.3233L68.3535 84.1795V81.5293L89.0225 90.4695C89.1091 90.5207 89.1747 90.601 89.2076 90.6959C89.2404 90.7909 89.2385 90.8944 89.202 90.9881C89.1814 91.0409 89.1503 91.089 89.1107 91.1296C89.071 91.1702 89.0236 91.2025 88.9713 91.2246C88.9189 91.2466 88.8627 91.258 88.8059 91.258C88.749 91.2581 88.6928 91.2468 88.6404 91.2248L68.4085 85.9523L62.9141 86.5029V86.3233Z" fill="#163F75"/>
<path d="M62.9219 92.0783L68.3545 89.6716V87.0215L89.0211 94.7078C89.1077 94.759 89.1733 94.8392 89.2062 94.9341C89.239 95.029 89.2371 95.1324 89.2007 95.226C89.1801 95.2788 89.149 95.327 89.1094 95.3677C89.0698 95.4083 89.0224 95.4406 88.97 95.4627C88.9177 95.4848 88.8614 95.4961 88.8045 95.4961C88.7477 95.4961 88.6914 95.4848 88.6391 95.4627L68.4094 91.4459L62.9219 92.2592V92.0783Z" fill="#163F75"/>
<path d="M86.2313 98.2645C85.6174 98.598 84.9852 98.9316 84.3485 99.2606L68.4112 96.6515L62.9141 97.0993V96.9211L68.3563 94.8787V92.2285L86.2313 98.2645Z" fill="#163F75"/>
<path d="M80.5554 101.104C79.1766 101.743 77.7626 102.365 76.3134 102.968L68.4112 102.2L62.9141 102.676V102.497L68.3563 100.427V97.7773L80.5554 101.104Z" fill="#163F75"/>
<path d="M72.2257 104.593C70.9522 105.072 69.6604 105.538 68.3594 105.982V103.807L72.2257 104.593Z" fill="#163F75"/>
<path fill-rule="evenodd" clip-rule="evenodd" d="M87.8588 91.8507C87.6325 92.0061 87.4067 92.1614 87.1758 92.3168C86.7237 92.6184 86.2669 92.9199 85.7969 93.2169C84.4135 94.1034 82.9663 94.9654 81.4555 95.8031C80.2584 96.4748 79.0272 97.1267 77.7619 97.7587L77.203 98.0329C53.2797 109.812 19.9375 114.459 19.9375 94.4963C19.9375 88.1908 24.4383 81.0582 31.7638 74.5425C26.9537 79.8199 24.119 85.1659 24.119 89.8083C24.119 96.7855 29.3249 100.043 37.0273 100.761H37.0319L40.6903 99.3214V96.7809L51.5367 99.8377H51.5413C53.5147 99.4905 55.5267 99.0564 57.5675 98.5538H57.5721C58.2286 98.3939 58.8891 98.2294 59.5456 98.0512C62.5434 97.2561 65.5632 96.3149 68.5298 95.2685C69.7891 94.8253 71.0397 94.3592 72.2725 93.8795C73.6115 93.3586 74.9377 92.8148 76.2323 92.2574C77.6335 91.6543 79.0023 91.0328 80.3387 90.3931C81.5982 89.79 82.822 89.1747 84.0104 88.5472C84.627 88.2182 85.2385 87.8846 85.8327 87.5511C94.3867 82.7625 100.453 77.4485 100.87 72.9844C102.027 79.1254 96.5018 85.9016 87.8588 91.8507Z" fill="#54B7C5"/>
<path fill-rule="evenodd" clip-rule="evenodd" d="M44.9297 107.69C55.127 107.525 69.186 103.148 81.092 96.9975C82.2876 96.3761 83.4649 95.741 84.6102 95.0921C85.2011 94.754 85.7875 94.4159 86.3601 94.0732C87.684 93.2827 88.9606 92.474 90.1898 91.6469C102.352 83.4635 109.251 73.7264 101.024 66.4385C98.0325 63.7884 92.9155 62.6186 86.6762 62.7968C95.1968 61.6591 102.449 62.7466 106.512 66.3471C127.08 84.5509 72.4064 113.611 44.9297 107.69Z" fill="#163F75"/>
<path d="M23.5589 120.155C22.7173 120.22 21.8818 119.969 21.2152 119.453C20.961 119.226 20.7571 118.949 20.6164 118.639C20.4758 118.329 20.4016 117.993 20.3984 117.653H21.344C21.353 117.897 21.4204 118.135 21.5405 118.348C21.6606 118.56 21.8299 118.742 22.0343 118.876C22.4796 119.15 22.9956 119.288 23.5185 119.272C23.9853 119.294 24.4481 119.177 24.847 118.934C25.0041 118.838 25.1333 118.703 25.2217 118.542C25.3101 118.381 25.3547 118.199 25.3509 118.016C25.3607 117.833 25.3165 117.652 25.224 117.494C25.1314 117.337 24.9944 117.209 24.8301 117.129C24.258 116.871 23.6558 116.687 23.0375 116.58C22.3774 116.481 21.751 116.225 21.212 115.832C21.0297 115.674 20.8853 115.478 20.7894 115.257C20.6935 115.036 20.6487 114.796 20.6582 114.556C20.6532 114.271 20.7159 113.989 20.8411 113.733C20.9664 113.477 21.1506 113.254 21.3788 113.083C21.9312 112.676 22.6073 112.473 23.2927 112.508C24.0126 112.473 24.7238 112.677 25.3152 113.088C25.5687 113.28 25.7742 113.528 25.9155 113.812C26.0569 114.096 26.1302 114.41 26.1297 114.727H25.17C25.0726 113.833 24.4592 113.385 23.3298 113.385C22.8854 113.359 22.4433 113.466 22.0604 113.693C21.9211 113.779 21.8064 113.899 21.7275 114.042C21.6486 114.186 21.6082 114.347 21.6101 114.51C21.6025 114.648 21.6321 114.785 21.6958 114.907C21.7594 115.03 21.8548 115.133 21.972 115.206C22.3959 115.425 22.8513 115.576 23.322 115.655C23.854 115.764 24.3784 115.907 24.8919 116.084C25.2724 116.22 25.6142 116.446 25.8883 116.742C26.1759 117.073 26.3236 117.502 26.3006 117.94C26.3049 118.244 26.2384 118.546 26.1064 118.821C25.9744 119.096 25.7804 119.336 25.5397 119.524C24.9757 119.963 24.2734 120.186 23.5589 120.155Z" fill="#54B7C5"/>
<path d="M35.1244 120.029H34.194V113.74L32.0803 120.029H31.2003L29.0866 113.74V120.029H28.1562V112.635H29.6277L31.6355 118.798L33.6511 112.635H35.1226L35.1244 120.029Z" fill="#54B7C5"/>
<path d="M42.8492 120.029H41.7416L40.8826 117.779H37.7776L36.9586 120.029H35.9219L38.7685 112.635H39.8253L42.8492 120.029ZM40.5945 117.002L39.2894 113.573L38.0479 117.002H40.5945Z" fill="#54B7C5"/>
<path d="M50.0851 120.028H49.0218L48.3255 118.056C48.2074 117.716 47.9912 117.418 47.7039 117.199C47.4172 116.978 47.0641 116.861 46.702 116.866H44.887V120.028H43.9062V112.634H47.1894C47.6635 112.622 48.1369 112.678 48.5949 112.801C48.9674 112.918 49.2838 113.168 49.4845 113.502C49.715 113.862 49.8346 114.281 49.8285 114.708C49.8436 115.174 49.6852 115.63 49.3837 115.987C49.0656 116.342 48.6357 116.579 48.1647 116.658V116.678C48.4519 116.794 48.708 116.975 48.9126 117.207C49.1172 117.439 49.2647 117.716 49.3434 118.015L50.0851 120.028ZM44.887 115.988H47.0763C47.5377 116.024 47.9995 115.924 48.4048 115.701C48.551 115.583 48.6653 115.43 48.7373 115.257C48.8093 115.083 48.8367 114.894 48.8171 114.708C48.8171 113.867 48.2878 113.446 47.2293 113.446H44.8884L44.887 115.988Z" fill="#54B7C5"/>
<path d="M56.9022 113.513H54.4496V120.029H53.4638V113.513H51.0312V112.635H56.9022V113.513Z" fill="#54B7C5"/>
<path d="M66.9093 117.879C66.9268 118.182 66.8717 118.484 66.7487 118.762C66.6256 119.039 66.438 119.283 66.2015 119.473C65.5967 119.882 64.8722 120.077 64.1433 120.028H61.3672V112.634H64.0072C64.6656 112.596 65.3186 112.773 65.868 113.137C66.0863 113.293 66.2623 113.502 66.3805 113.743C66.4987 113.984 66.5554 114.25 66.5455 114.519C66.5505 114.86 66.451 115.194 66.2604 115.477C66.0697 115.76 65.7969 115.978 65.4786 116.102C65.8892 116.181 66.2583 116.403 66.5204 116.728C66.7824 117.053 66.9204 117.461 66.9097 117.878L66.9093 117.879ZM62.3484 115.732H63.9976C64.414 115.762 64.8302 115.672 65.1964 115.472C65.3293 115.372 65.4344 115.241 65.5017 115.089C65.569 114.938 65.5962 114.772 65.5808 114.607C65.5911 114.45 65.5623 114.293 65.497 114.15C65.4317 114.007 65.3319 113.882 65.2065 113.787C64.8102 113.569 64.3578 113.474 63.9069 113.513H62.3493L62.3484 115.732ZM62.3484 119.151H64.135C65.3081 119.151 65.8946 118.727 65.8946 117.88C65.91 117.698 65.881 117.516 65.8101 117.347C65.7392 117.179 65.6284 117.031 65.4873 116.914C65.0359 116.668 64.521 116.562 64.0086 116.609H62.3503L62.3484 119.151Z" fill="#54B7C5"/>
<path d="M71.4316 120.155C70.7511 120.205 70.073 120.029 69.5026 119.656C69.1065 119.367 68.8209 118.953 68.6931 118.481C68.5734 117.967 68.5166 117.44 68.5241 116.912V112.635H69.5049V116.897C69.5049 117.868 69.6684 118.507 69.9955 118.813C70.4144 119.112 70.9165 119.272 71.4314 119.272C71.9463 119.272 72.4484 119.112 72.8673 118.813C73.1944 118.507 73.3581 117.868 73.3584 116.897V112.635H74.3442V116.912C74.3841 117.586 74.2746 118.261 74.0236 118.889C73.8169 119.305 73.4756 119.64 73.0547 119.84C72.5446 120.066 71.9896 120.174 71.4316 120.155Z" fill="#54B7C5"/>
<path d="M77.4311 120.029H76.4453V112.635H77.4311V120.029Z" fill="#54B7C5"/>
<path d="M84.1104 120.029H79.5234V112.635H80.5042V119.153H84.1104V120.029Z" fill="#54B7C5"/>
<path d="M85.5391 112.635H87.8905C90.4085 112.635 91.6675 113.853 91.6675 116.29C91.6675 118.782 90.4085 120.028 87.8905 120.027H85.5391V112.635ZM86.5203 119.151H87.8703C88.9456 119.151 89.6786 118.901 90.0692 118.403C90.4959 117.784 90.7025 117.041 90.656 116.292C90.7019 115.561 90.4958 114.836 90.072 114.239C89.6826 113.755 88.9485 113.513 87.8699 113.513H86.5199L86.5203 119.151Z" fill="#54B7C5"/>
<path d="M93.9858 120.029H93V112.635H93.9858V120.029Z" fill="#54B7C5"/>
<path d="M102.064 120.029H101.056L97.1726 114.193V120.029H96.2422V112.635H97.2436L101.127 118.47V112.635H102.062L102.064 120.029Z" fill="#54B7C5"/>
<path d="M107.445 120.155C106.963 120.174 106.484 120.09 106.037 119.91C105.59 119.73 105.187 119.457 104.853 119.111C104.212 118.326 103.862 117.345 103.859 116.333C103.857 115.32 104.204 114.338 104.841 113.55C105.171 113.204 105.571 112.932 106.015 112.752C106.459 112.573 106.936 112.49 107.414 112.508C108.207 112.479 108.988 112.704 109.642 113.151C109.925 113.347 110.161 113.604 110.332 113.901C110.504 114.199 110.608 114.531 110.636 114.874H109.621C109.607 114.65 109.542 114.432 109.429 114.237C109.317 114.042 109.161 113.876 108.974 113.752C108.512 113.462 107.972 113.32 107.426 113.346C107.079 113.332 106.734 113.395 106.414 113.531C106.095 113.666 105.809 113.87 105.578 114.127C105.121 114.772 104.876 115.542 104.877 116.332C104.879 117.121 105.126 117.891 105.586 118.533C105.818 118.791 106.104 118.995 106.424 119.131C106.743 119.266 107.089 119.33 107.436 119.318C107.89 119.351 108.344 119.272 108.76 119.088C109.175 118.904 109.539 118.621 109.818 118.263V117.138H107.862V116.256H110.766V120.029H110.074L109.816 119.252C109.314 119.854 108.524 120.155 107.445 120.155Z" fill="#54B7C5"/>
<path d="M63.8828 126.415V123.282C63.8828 123.04 63.898 122.742 63.9286 122.387H63.913C63.8809 122.537 63.8349 122.683 63.7756 122.824L62.1544 126.415H61.9253L60.3073 122.851C60.2476 122.702 60.2033 122.547 60.1749 122.388H60.1589C60.1822 122.683 60.1906 122.979 60.1841 123.274V126.417H59.6875V121.775H60.3545L61.808 125.044C61.8924 125.222 61.9652 125.405 62.0261 125.593H62.0453C62.0759 125.507 62.1522 125.319 62.2744 125.029L63.7632 121.775H64.3922V126.415H63.8828Z" fill="#163F75"/>
<path d="M69.986 126.415H69.4207L68.9168 125.098H66.9227L66.4513 126.415H65.8828L67.6694 121.775H68.188L69.986 126.415ZM68.7409 124.633L67.9983 122.626C67.9651 122.527 67.9418 122.424 67.9287 122.32H67.9131C67.9003 122.425 67.8749 122.528 67.8375 122.626L67.1004 124.631L68.7409 124.633Z" fill="#163F75"/>
<path d="M75.189 126.415H74.5476L72.1197 122.669C72.0619 122.577 72.0133 122.48 71.9745 122.379H71.9589C71.9768 122.589 71.984 122.8 71.9804 123.012V126.414H71.4688V121.775H72.1467L74.5078 125.47C74.6168 125.64 74.6791 125.744 74.6938 125.775H74.707C74.6794 125.548 74.6676 125.319 74.6718 125.09V121.777H75.1903L75.189 126.415Z" fill="#163F75"/>
<path d="M80.7764 126.415H80.2098L79.7059 125.098H77.7113L77.2404 126.415H76.6719L78.4585 121.775H78.977L80.7764 126.415ZM79.5313 124.633L78.7897 122.626C78.7561 122.527 78.7326 122.424 78.7196 122.32H78.704C78.6914 122.425 78.666 122.528 78.6284 122.626L77.8918 124.631L79.5313 124.633Z" fill="#163F75"/>
<path d="M85.6196 126.099C85.1479 126.366 84.6133 126.503 84.0708 126.496C83.7752 126.507 83.4806 126.456 83.2061 126.346C82.9317 126.235 82.6836 126.069 82.478 125.857C82.2685 125.629 82.1062 125.361 82.0004 125.071C81.8947 124.78 81.8476 124.471 81.8619 124.162C81.8499 123.836 81.9042 123.512 82.0213 123.207C82.1384 122.903 82.3161 122.625 82.5435 122.391C82.7668 122.163 83.035 121.984 83.3311 121.865C83.6273 121.746 83.945 121.69 84.2641 121.699C84.7013 121.682 85.1363 121.768 85.5344 121.948V122.525C85.1336 122.281 84.6705 122.157 84.2009 122.169C83.9587 122.162 83.7176 122.206 83.4941 122.299C83.2705 122.393 83.0698 122.533 82.9054 122.711C82.5845 123.107 82.4063 123.6 82.3994 124.109C82.3925 124.618 82.5573 125.115 82.8674 125.52C83.0311 125.691 83.2299 125.825 83.4503 125.913C83.6706 126 83.9073 126.039 84.1441 126.027C84.4797 126.038 84.8122 125.961 85.1084 125.804V124.478H84.0841V124.012H85.6201L85.6196 126.099Z" fill="#163F75"/>
<path d="M89.9504 126.415H87.5078V121.775H89.8441V122.245H88.0145V123.821H89.7058V124.288H88.0145V125.948H89.9486L89.9504 126.415Z" fill="#163F75"/>
<path d="M95.8354 126.415V123.282C95.8354 123.04 95.8519 122.742 95.8812 122.387H95.8657C95.8333 122.537 95.7873 122.683 95.7282 122.824L94.107 126.415H93.878L92.26 122.851C92.2001 122.702 92.1557 122.547 92.1276 122.388H92.1116C92.1349 122.683 92.1433 122.979 92.1367 123.274V126.417H91.6406V121.775H92.3072L93.7612 125.044C93.8455 125.222 93.9183 125.405 93.9792 125.593H93.9985C94.029 125.507 94.1053 125.319 94.2275 125.029L95.7163 121.775H96.3453V126.415H95.8354Z" fill="#163F75"/>
<path d="M100.818 126.415H98.375V121.775H100.711V122.245H98.8817V123.821H100.572V124.288H98.8817V125.948H100.816L100.818 126.415Z" fill="#163F75"/>
<path d="M106.236 126.415H105.595L103.167 122.669C103.109 122.577 103.06 122.48 103.021 122.379H103.005C103.023 122.589 103.031 122.8 103.027 123.012V126.414H102.516V121.775H103.191L105.553 125.47C105.662 125.64 105.724 125.744 105.739 125.775H105.752C105.724 125.548 105.713 125.319 105.717 125.09V121.777H106.235L106.236 126.415Z" fill="#163F75"/>
<path d="M110.969 122.245H109.626V126.415H109.11V122.245H107.773V121.775H110.969V122.245Z" fill="#163F75"/>
</svg>
