<svg width="20" height="20" viewBox="0 0 20 20" fill="none" xmlns="http://www.w3.org/2000/svg">
<path d="M18.7988 8.52659C18.7988 7.13076 17.676 5.98219 16.3178 5.91052V2.94026C16.3178 2.58668 16.1224 2.26654 15.8077 2.10527C15.4935 1.94281 15.1202 1.97029 14.8329 2.17455L13.9382 2.81125C12.4319 3.88336 10.6365 4.58815 8.74489 4.85215H3.5874C2.16051 4.85215 1 6.01265 1 7.43955V9.28215C1 10.709 2.16051 11.8696 3.5874 11.8696H3.84005V16.0798C3.84005 17.1381 4.70132 18 5.7603 18C6.81927 18 7.68054 17.1387 7.68054 16.0798V11.8696H8.74548C10.6365 12.1324 12.4319 12.8371 13.9388 13.9098L14.8329 14.5459C14.9954 14.6618 15.1865 14.7215 15.3776 14.7215C15.5246 14.7215 15.6721 14.6863 15.8089 14.6164C16.1224 14.4546 16.3184 14.1344 16.3184 13.7814V11.1331C17.6969 11.059 18.7988 9.92362 18.7988 8.52659ZM6.60425 16.0798C6.60425 16.5456 6.22557 16.9243 5.7597 16.9243C5.29382 16.9243 4.91515 16.5456 4.91515 16.0798V11.8696H6.60425V16.0798ZM8.24855 10.7939H3.5874C2.7536 10.7939 2.0757 10.1153 2.0757 9.28215V7.43955C2.0757 6.64995 2.68611 6.00728 3.45839 5.94098V7.26216C3.45839 7.559 3.69909 7.79971 3.99594 7.79971C4.29279 7.79971 4.53349 7.559 4.53349 7.26216V5.92784H5.79016V7.26156C5.79016 7.55841 6.03086 7.79911 6.32771 7.79911C6.62456 7.79911 6.86526 7.55841 6.86526 7.26156V5.92784H8.24795V10.7939H8.24855ZM15.2421 13.5186L14.5612 13.0336C13.0298 11.943 11.2272 11.2006 9.32365 10.8709V5.85079C11.2272 5.5205 13.0292 4.77749 14.5612 3.68746L15.2421 3.20247V13.5186ZM16.3178 10.058V6.99577C17.0906 7.06924 17.7237 7.72385 17.7237 8.52719C17.7237 9.33112 17.1038 9.98634 16.3178 10.058Z" fill="white"/>
</svg>
