<svg width="24" height="24" viewBox="0 0 24 24" fill="none" xmlns="http://www.w3.org/2000/svg">
<path d="M0 5C0 2.23858 2.23858 0 5 0H19C21.7614 0 24 2.23858 24 5V19C24 21.7614 21.7614 24 19 24H5C2.23858 24 0 21.7614 0 19V5Z" fill="white"/>
<path d="M14.4604 5.61308L13.8267 5.52734L12.0664 5.75768V9.55936C12.0691 9.55936 12.0721 9.5612 12.0747 9.5612C13.662 9.5612 14.4556 5.63553 14.4604 5.61308Z" fill="#DDE2E2"/>
<path d="M10.1549 5.52734L8.45312 5.80612V18.5057H11.9155V5.80612L10.1549 5.52734Z" fill="#DDE2E2"/>
<path d="M11.9845 6.42969H11.8112C11.4087 8.37325 11.4308 7.96549 11.3633 8.6887C11.3024 9.33813 11.4336 12.642 11.5155 13.2427C11.5516 13.5156 11.9845 14.2207 11.9845 14.2207V6.42969Z" fill="#414042"/>
<path d="M12.0117 6.42969H12.184C12.5872 8.37325 12.5651 7.96549 12.6333 8.6887C12.6927 9.33813 12.5615 12.642 12.4816 13.2427C12.4441 13.5156 12.0117 14.2207 12.0117 14.2207V6.42969Z" fill="#414042"/>
<path d="M12.0312 4.77344V5.7739C12.0312 5.7739 13.4405 5.697 13.446 5.28158L13.5279 5.1149L13.4523 4.92943C13.4523 4.92943 12.8212 4.88309 12.8045 4.88309C12.7868 4.88309 12.0312 4.77344 12.0312 4.77344Z" fill="#DDE2E2"/>
<path d="M11.9611 4.77344V5.7739C11.9611 5.7739 10.5518 5.697 10.5452 5.28158L10.4648 5.1149L10.5401 4.92943C10.5401 4.92943 11.1698 4.88309 11.1872 4.88309C11.2045 4.88309 11.9611 4.77344 11.9611 4.77344Z" fill="#DDE2E2"/>
<path d="M11.9994 5.73047L11.5156 5.80737C11.5156 5.80737 11.6645 6.31405 11.7526 6.4568C11.8062 6.54402 11.8999 6.54143 11.9994 6.54143C12.0985 6.54143 12.1919 6.54402 12.2459 6.4568C12.3323 6.31405 12.4818 5.80737 12.4818 5.80737L11.9994 5.73047Z" fill="#414042"/>
<path d="M13.5864 5.01004C13.5718 4.92099 13.4828 4.85034 13.3056 4.82384C12.992 4.77603 12.0391 4.77344 12.0391 4.77344V4.97582C12.0391 4.97582 12.99 4.97323 13.3056 5.00082C13.3467 5.0056 13.4166 5.02107 13.4527 5.07994C13.5175 5.18553 13.0732 5.56121 12.0481 5.72975C12.0481 5.72975 12.6065 5.79891 12.6646 5.94314C12.7985 6.27209 12.9525 7.12574 12.9525 7.12574C13.185 6.51089 13.729 5.53583 13.729 5.53583C13.729 5.53583 13.63 5.26946 13.5864 5.01004Z" fill="#F1F2F2"/>
<path d="M10.4279 5.01004C10.4427 4.92099 10.5316 4.85034 10.7093 4.82384C11.0221 4.77603 11.9753 4.77344 11.9753 4.77344V4.97582C11.9753 4.97582 11.0244 4.97323 10.7093 5.00082C10.6678 5.0056 10.5979 5.02107 10.5617 5.07994C10.4967 5.18553 10.9408 5.56121 11.967 5.72975C11.967 5.72975 11.4081 5.79891 11.3503 5.94314C11.2161 6.27209 11.0623 7.12574 11.0623 7.12574C10.8292 6.51089 10.2852 5.53583 10.2852 5.53583C10.2852 5.53583 10.384 5.26946 10.4279 5.01004Z" fill="#F1F2F2"/>
<path d="M2 15.0022L3.69372 16.3677L4.41899 15.4688L2.74738 14.0742L2 15.0022Z" fill="#515067"/>
<path d="M8.13125 5.72266L2.74609 12.4003L4.4177 13.7948L9.64633 7.31037L8.13125 5.72266Z" fill="#515067"/>
<path d="M21.9978 15.0022L20.3038 16.3677L19.5781 15.4688L21.2493 14.0742L21.9978 15.0022Z" fill="#515067"/>
<path d="M15.6833 5.74609L15.4023 8.89061L15.7506 9.2961L17.298 7.74812L15.6833 5.74609Z" fill="#515067"/>
<path d="M13.8359 8.75621L18.9215 14.4966L21.2642 12.7174L16.0051 6.78125L13.8359 8.75621Z" fill="#515067"/>
<path d="M12.0389 12.0239C10.8146 9.64964 9.52326 5.76953 9.52326 5.76953L8.38465 5.91459L8.37891 19.4312H8.43195L12.0301 15.0502L12.0389 12.0239Z" fill="#515067"/>
<path d="M8.42969 19.4331H12.0278V15.0117L8.42969 19.4331Z" fill="#515067"/>
<path d="M11.9844 13.3486V19.4325H15.2845V8.01172L11.9844 13.3486Z" fill="#515067"/>
<path d="M15.5635 9.37669L15.5758 5.74721L14.4955 5.61328C14.4908 5.63573 13.2987 8.1952 12.1099 10.376C12.1089 10.3786 12.1043 9.55956 12.1016 9.55956V12.8388L15.5635 9.37669Z" fill="#515067"/>
<path d="M14.0479 5.54297L15.2826 5.71224L14.4833 6.43232L15.0855 6.89447L12.0977 10.4824L14.0479 5.54297Z" fill="#747385"/>
<path d="M9.98437 5.54297L8.75 5.71224L9.54901 6.43232L8.94722 6.89447L11.9345 10.4824L9.98437 5.54297Z" fill="#747385"/>
</svg>
