<svg width="16" height="16" viewBox="0 0 16 16" fill="none" xmlns="http://www.w3.org/2000/svg">
<path opacity="0.5" d="M8 0C6.41775 0 4.87103 0.469192 3.55544 1.34824C2.23985 2.22729 1.21447 3.47672 0.608967 4.93853C0.00346626 6.40034 -0.15496 8.00887 0.153721 9.56072C0.462403 11.1126 1.22433 12.538 2.34315 13.6569C3.46197 14.7757 4.88743 15.5376 6.43928 15.8463C7.99113 16.155 9.59966 15.9965 11.0615 15.391C12.5233 14.7855 13.7727 13.7602 14.6518 12.4446C15.5308 11.129 16 9.58225 16 8C16 5.87827 15.1571 3.84344 13.6569 2.34315C12.1566 0.842855 10.1217 0 8 0ZM7.89107 13.263C7.70995 13.263 7.5329 13.2093 7.38231 13.1086C7.23171 13.008 7.11434 12.865 7.04503 12.6977C6.97572 12.5303 6.95758 12.3462 6.99292 12.1686C7.02825 11.9909 7.11547 11.8278 7.24354 11.6997C7.37161 11.5716 7.53478 11.4844 7.71241 11.4491C7.89005 11.4137 8.07418 11.4319 8.24151 11.5012C8.40884 11.5705 8.55186 11.6879 8.65248 11.8385C8.7531 11.9891 8.80681 12.1661 8.80681 12.3472C8.80636 12.59 8.70974 12.8226 8.5381 12.9943C8.36646 13.1659 8.1338 13.2625 7.89107 13.263ZM8.89192 8.81702C8.89192 8.81702 8.8017 8.84936 8.8017 8.90213V9.62893C8.8017 9.87068 8.70567 10.1025 8.53473 10.2735C8.3638 10.4444 8.13196 10.5404 7.89021 10.5404C7.64847 10.5404 7.41663 10.4444 7.24569 10.2735C7.07476 10.1025 6.97873 9.87068 6.97873 9.62893V8.90213C6.98273 8.49886 7.11316 8.107 7.35165 7.78179C7.59014 7.45657 7.92467 7.21439 8.30809 7.08936C8.57248 7.00113 8.80131 6.82985 8.96049 6.60105C9.11967 6.37225 9.20069 6.09815 9.19149 5.81957C9.17382 5.48274 9.02876 5.16522 8.78572 4.93134C8.54268 4.69746 8.21982 4.56472 7.88256 4.56C7.63973 4.56106 7.40213 4.63063 7.19708 4.76071C6.99202 4.89079 6.82784 5.07609 6.72341 5.29532C6.67144 5.40317 6.59873 5.49973 6.50945 5.57948C6.42016 5.65924 6.31604 5.72062 6.20303 5.76014C5.97479 5.83994 5.7242 5.82581 5.50639 5.72085C5.28857 5.61589 5.12137 5.42871 5.04157 5.20047C4.96176 4.97223 4.9759 4.72164 5.08085 4.50383C5.33215 3.9771 5.72689 3.53193 6.21976 3.2194C6.71263 2.90688 7.28364 2.73969 7.86724 2.73702H7.88596C8.69671 2.74172 9.47434 3.05929 10.0566 3.62348C10.6389 4.18767 10.9808 4.9549 11.0111 5.76511C11.0336 6.43375 10.8398 7.09182 10.4582 7.6414C10.0767 8.19099 9.52797 8.60271 8.89362 8.81532L8.89192 8.81702Z" fill="white"/>
</svg>
