<svg width="21" height="20" viewBox="0 0 21 20" fill="none" xmlns="http://www.w3.org/2000/svg">
<g opacity="0.8">
<path d="M17.6395 2.82031H15.872V3.92355C15.8735 4.01903 15.8373 4.11125 15.7711 4.18013C15.705 4.249 15.6143 4.28896 15.5189 4.2913H14.8141C14.7187 4.28896 14.628 4.249 14.5619 4.18013C14.4957 4.11125 14.4595 4.01903 14.461 3.92355V2.82031H5.97286V3.92355C5.97438 4.01903 5.93813 4.11125 5.87198 4.18013C5.80583 4.249 5.71516 4.28896 5.61969 4.2913H4.91255C4.81709 4.28896 4.72641 4.249 4.66027 4.18013C4.59412 4.11125 4.55786 4.01903 4.55939 3.92355V2.82031H2.79113C2.31345 2.83137 1.85953 3.0309 1.52841 3.37538C1.19729 3.71985 1.01585 4.1813 1.02368 4.65904V17.16C1.01585 17.6377 1.19729 18.0992 1.52841 18.4436C1.85953 18.7881 2.31345 18.9876 2.79113 18.9987H17.6395C18.1172 18.9876 18.5711 18.7881 18.9022 18.4436C19.2333 18.0992 19.4147 17.6377 19.4069 17.16V4.65904C19.4147 4.1813 19.2333 3.71985 18.9022 3.37538C18.5711 3.0309 18.1172 2.83137 17.6395 2.82031ZM17.9926 16.6084C17.9966 16.8472 17.9058 17.0779 17.7403 17.2502C17.5747 17.4224 17.3478 17.5222 17.1089 17.5277H3.32169C3.08285 17.5222 2.85589 17.4224 2.69033 17.2502C2.52477 17.0779 2.43405 16.8472 2.43796 16.6084V8.33569C2.43644 8.24021 2.4727 8.14799 2.53884 8.07911C2.60499 8.01024 2.69566 7.97028 2.79113 7.96794H17.6395C17.7349 7.97028 17.8256 8.01024 17.8918 8.07911C17.9579 8.14799 17.9942 8.24021 17.9926 8.33569V16.6084Z" fill="white"/>
<path d="M6.29909 1.45523C6.29866 1.33463 6.25057 1.21908 6.16529 1.1338C6.08001 1.04853 5.96447 1.00043 5.84386 1H4.9326C4.81186 1.00021 4.69611 1.04822 4.61065 1.13352C4.5252 1.21882 4.47699 1.33449 4.47656 1.45523V2.82172H6.29909V1.45523Z" fill="white"/>
<path d="M15.9545 1.45523C15.9541 1.33463 15.906 1.21908 15.8207 1.1338C15.7354 1.04853 15.6199 1.00043 15.4993 1H14.588C14.4673 1.00043 14.3516 1.04864 14.2663 1.13409C14.181 1.21955 14.133 1.33529 14.1328 1.45604V2.82172H15.9545V1.45523Z" fill="white"/>
</g>
</svg>
