<svg width="18" height="18" viewBox="0 0 18 18" fill="none" xmlns="http://www.w3.org/2000/svg">
<path fill-rule="evenodd" clip-rule="evenodd" d="M11.2802 3.03848C12.0377 3.33998 12.2694 4.38998 12.5792 4.72748C12.8889 5.06498 13.3322 5.17973 13.5774 5.17973C14.8809 5.17973 15.9377 6.23648 15.9377 7.53923V11.8855C15.9377 13.633 14.5202 15.0505 12.7727 15.0505H5.22765C3.4794 15.0505 2.06265 13.633 2.06265 11.8855V7.53923C2.06265 6.23648 3.1194 5.17973 4.4229 5.17973C4.6674 5.17973 5.11065 5.06498 5.42115 4.72748C5.7309 4.38998 5.9619 3.33998 6.7194 3.03848C7.47765 2.73698 10.5227 2.73698 11.2802 3.03848Z" stroke="white" stroke-linecap="round" stroke-linejoin="round"/>
<path d="M13.1216 7.125H13.1284" stroke="white" stroke-linecap="round" stroke-linejoin="round"/>
<path fill-rule="evenodd" clip-rule="evenodd" d="M11.3842 9.846C11.3842 8.529 10.3169 7.46175 8.99994 7.46175C7.68294 7.46175 6.61569 8.529 6.61569 9.846C6.61569 11.163 7.68294 12.2302 8.99994 12.2302C10.3169 12.2302 11.3842 11.163 11.3842 9.846Z" stroke="white" stroke-linecap="round" stroke-linejoin="round"/>
</svg>
