<svg width="30" height="30" viewBox="0 0 30 30" fill="none" xmlns="http://www.w3.org/2000/svg">
<g clip-path="url(#clip0_4040_52948)">
<path d="M9.91836 9.46347C7.85807 9.46347 6.31836 6.74141 6.31836 4.30611C6.31836 1.98552 7.76542 0.441406 9.91836 0.441406C12.0713 0.441406 13.5139 1.99876 13.5139 4.31935C13.5139 6.74141 11.9742 9.46347 9.91836 9.46347ZM9.91836 1.32376C8.59483 1.32376 7.20071 2.10905 7.20071 4.31935C7.20071 6.52964 8.5463 8.59435 9.91836 8.59435C11.2904 8.59435 12.6316 6.4767 12.6316 4.31935C12.6316 2.45758 11.5904 1.32376 9.91836 1.32376Z" fill="#163F75"/>
<path d="M12.0787 8.06435L11.2129 8.23438L11.6073 10.2431L12.4732 10.073L12.0787 8.06435Z" fill="#163F75"/>
<path d="M7.75027 8.06559L7.35547 10.0742L8.22126 10.2444L8.61606 8.23577L7.75027 8.06559Z" fill="#163F75"/>
<path d="M16.5263 16.4784H3.29102V13.0372C3.45425 11.1004 5.05572 9.97984 5.99102 9.4769C6.30049 9.31108 6.65337 9.24417 7.00206 9.28519C7.35076 9.32622 7.67848 9.4732 7.94102 9.70631L9.91749 11.4181L11.9116 9.70631C12.1726 9.47819 12.4968 9.3349 12.8412 9.29549C13.1856 9.25609 13.5338 9.32244 13.8395 9.48572C14.7793 9.98867 16.3719 11.1137 16.5307 13.0151V16.496L16.5263 16.4784ZM4.17337 15.596H15.644V13.0548C15.516 11.6607 14.3601 10.7651 13.416 10.2534C13.2662 10.1762 13.0967 10.1454 12.9293 10.1651C12.7619 10.1847 12.6042 10.2539 12.4763 10.3637L10.5087 12.0754C10.3468 12.2205 10.1371 12.3008 9.91969 12.3008C9.70231 12.3008 9.49258 12.2205 9.33072 12.0754L7.35425 10.3637C7.22733 10.2537 7.07032 10.1844 6.90356 10.1648C6.73679 10.1451 6.56797 10.176 6.41896 10.2534C5.46602 10.7651 4.30572 11.6651 4.1866 13.0725L4.17337 15.596Z" fill="#163F75"/>
<path d="M9.91836 9.46347C7.85807 9.46347 6.31836 6.74141 6.31836 4.30611C6.31836 1.98552 7.76542 0.441406 9.91836 0.441406C12.0713 0.441406 13.5139 1.99876 13.5139 4.31935C13.5139 6.74141 11.9742 9.46347 9.91836 9.46347ZM9.91836 1.32376C8.59483 1.32376 7.20071 2.10905 7.20071 4.31935C7.20071 6.52964 8.5463 8.59435 9.91836 8.59435C11.2904 8.59435 12.6316 6.4767 12.6316 4.31935C12.6316 2.45758 11.5904 1.32376 9.91836 1.32376Z" fill="#163F75"/>
<path d="M12.0787 8.06435L11.2129 8.23438L11.6073 10.2431L12.4732 10.073L12.0787 8.06435Z" fill="#163F75"/>
<path d="M7.75027 8.06559L7.35547 10.0742L8.22126 10.2444L8.61606 8.23577L7.75027 8.06559Z" fill="#163F75"/>
<path d="M20.0878 9.46347C18.0275 9.46347 16.4922 6.74141 16.4922 4.30611C16.4922 1.98552 17.9348 0.441406 20.0878 0.441406C22.2407 0.441406 23.6834 1.99876 23.6834 4.31935C23.6834 6.74141 22.1437 9.46347 20.0878 9.46347ZM20.0878 1.32376C18.4113 1.32376 17.3745 2.47082 17.3745 4.31935C17.3745 6.4767 18.6981 8.59435 20.0878 8.59435C21.4775 8.59435 22.801 6.4767 22.801 4.31935C22.801 2.45758 21.7598 1.32376 20.0878 1.32376Z" fill="#163F75"/>
<path d="M22.2525 8.0624L21.3867 8.23242L21.7812 10.2411L22.647 10.0711L22.2525 8.0624Z" fill="#163F75"/>
<path d="M17.9182 8.06755L17.5234 10.0762L18.3892 10.2463L18.784 8.23772L17.9182 8.06755Z" fill="#163F75"/>
<path d="M26.6966 16.4776H15.6407V13.0364C15.5552 12.323 15.219 11.6632 14.6921 11.1747L14.3789 10.8614L14.6921 10.5526C15.1298 10.1199 15.6312 9.75688 16.1789 9.47613C16.483 9.31612 16.8286 9.25236 17.1698 9.29334C17.511 9.33431 17.8316 9.47807 18.0892 9.70554L20.0701 11.4129L22.0598 9.70554C22.3208 9.47742 22.645 9.33413 22.9894 9.29472C23.3338 9.25532 23.682 9.32167 23.9877 9.48496C24.923 9.98349 26.5201 11.1085 26.6789 13.0144V16.4908L26.6966 16.4776ZM16.523 15.5952H25.8142V13.0585C25.6774 11.5805 24.3627 10.6673 23.6083 10.2526C23.4584 10.1748 23.2884 10.1441 23.1207 10.1646C22.953 10.1851 22.7954 10.2557 22.6686 10.3673L20.6966 12.0747C20.535 12.2185 20.3261 12.298 20.1098 12.298C19.8934 12.298 19.6846 12.2185 19.523 12.0747L17.5245 10.3673C17.3993 10.2559 17.2432 10.1853 17.0769 10.1648C16.9107 10.1443 16.7421 10.1749 16.5936 10.2526C16.2498 10.4311 15.926 10.6455 15.6274 10.8923C16.1326 11.4871 16.4409 12.2238 16.5098 13.0011L16.523 15.5952Z" fill="#163F75"/>
<path d="M28.8973 18.9134H1.10317C0.92766 18.9134 0.759338 18.8436 0.635233 18.7195C0.511128 18.5954 0.441406 18.4271 0.441406 18.2516V16.2575C0.441406 16.082 0.511128 15.9136 0.635233 15.7895C0.759338 15.6654 0.92766 15.5957 1.10317 15.5957H28.8973C29.0728 15.5957 29.2411 15.6654 29.3652 15.7895C29.4893 15.9136 29.5591 16.082 29.5591 16.2575V18.2516C29.5591 18.4271 29.4893 18.5954 29.3652 18.7195C29.2411 18.8436 29.0728 18.9134 28.8973 18.9134ZM1.32376 18.031H28.6767V16.4781H1.32376V18.031Z" fill="#163F75"/>
<path d="M28.0689 29.5592H1.93359V18.0312H28.0689V29.5592ZM2.81595 28.6768H27.1865V18.9136H2.81595V28.6768Z" fill="#163F75"/>
<path d="M22.8887 27.5926H7.10779C6.99078 27.5926 6.87857 27.5461 6.79583 27.4634C6.71309 27.3806 6.66661 27.2684 6.66661 27.1514C6.66661 26.5976 6.4469 26.0663 6.05568 25.6743C5.66446 25.2822 5.1337 25.0614 4.57985 25.0602C4.46284 25.0602 4.35063 25.0137 4.26789 24.931C4.18515 24.8483 4.13867 24.7361 4.13867 24.619V22.9911C4.13867 22.8741 4.18515 22.7619 4.26789 22.6791C4.35063 22.5964 4.46284 22.5499 4.57985 22.5499C5.1337 22.5488 5.66446 22.3279 6.05568 21.9359C6.4469 21.5438 6.66661 21.0126 6.66661 20.4588C6.66661 20.3417 6.71309 20.2295 6.79583 20.1468C6.87857 20.0641 6.99078 20.0176 7.10779 20.0176H22.8887C23.0057 20.0176 23.1179 20.0641 23.2006 20.1468C23.2834 20.2295 23.3298 20.3417 23.3298 20.4588C23.331 21.013 23.5517 21.5442 23.9436 21.9362C24.3355 22.3281 24.8668 22.5488 25.421 22.5499C25.538 22.5499 25.6502 22.5964 25.733 22.6791C25.8157 22.7619 25.8622 22.8741 25.8622 22.9911V24.619C25.8622 24.7361 25.8157 24.8483 25.733 24.931C25.6502 25.0137 25.538 25.0602 25.421 25.0602C24.8664 25.0602 24.3345 25.2805 23.9423 25.6727C23.5502 26.0649 23.3298 26.5968 23.3298 27.1514C23.3298 27.2684 23.2834 27.3806 23.2006 27.4634C23.1179 27.5461 23.0057 27.5926 22.8887 27.5926ZM7.50044 26.7102H22.5004C22.5965 26.0812 22.891 25.4993 23.341 25.0493C23.7909 24.5993 24.3729 24.3049 25.0019 24.2088V23.3838C24.3751 23.2893 23.7947 22.9976 23.3449 22.551C22.8951 22.1044 22.5993 21.526 22.5004 20.8999H7.50044C7.40217 21.5226 7.10939 22.0983 6.66402 22.5444C6.21866 22.9906 5.64354 23.2844 5.02102 23.3838V24.1955C5.64796 24.2967 6.22634 24.595 6.6722 25.0472C7.11805 25.4994 7.40817 26.0819 7.50044 26.7102Z" fill="#163F75"/>
</g>
<defs>
<clipPath id="clip0_4040_52948">
<rect width="30" height="30" fill="white"/>
</clipPath>
</defs>
</svg>
