<svg width="31" height="30" viewBox="0 0 31 30" fill="none" xmlns="http://www.w3.org/2000/svg">
<rect x="0.75" width="30" height="30" rx="7.5" fill="#CCE0ED"/>
<path fill-rule="evenodd" clip-rule="evenodd" d="M13.0414 21.25H18.458C20.5769 21.25 22 19.7637 22 17.552V12.448C22 10.2363 20.5769 8.75 18.4586 8.75H13.0414C10.9231 8.75 9.5 10.2363 9.5 12.448V17.552C9.5 19.7637 10.9231 21.25 13.0414 21.25ZM13.5619 14.3755C12.7003 14.3755 12.0001 13.6744 12.0001 12.813C12.0001 11.9516 12.7003 11.2505 13.5619 11.2505C14.4229 11.2505 15.1237 11.9516 15.1237 12.813C15.1237 13.6744 14.4229 14.3755 13.5619 14.3755ZM20.638 16.8337C20.8473 17.3704 20.7386 18.0153 20.5148 18.5468C20.2496 19.1789 19.7418 19.6575 19.102 19.8665C18.8179 19.9594 18.52 20 18.2227 20H12.9554C12.4312 20 11.9674 19.8742 11.5872 19.6401C11.349 19.493 11.3069 19.1538 11.4835 18.9338C11.7789 18.5662 12.0705 18.1972 12.3646 17.8251C12.9252 17.113 13.303 16.9066 13.7228 17.0878C13.8931 17.1627 14.0641 17.2749 14.24 17.3936C14.7089 17.7122 15.3606 18.1502 16.2191 17.6748C16.8066 17.3457 17.1474 16.7813 17.4441 16.2898L17.4491 16.2816C17.4701 16.2471 17.4909 16.2126 17.5117 16.1783L17.5117 16.1782C17.6115 16.0132 17.7098 15.8504 17.8211 15.7005C17.9607 15.5128 18.4779 14.9258 19.1479 15.3438C19.5746 15.6069 19.9335 15.963 20.3175 16.3442C20.4639 16.4899 20.5682 16.6557 20.638 16.8337Z" fill="#163F75"/>
</svg>
