<svg width="31" height="30" viewBox="0 0 31 30" fill="none" xmlns="http://www.w3.org/2000/svg">
<rect x="0.75" width="30" height="30" rx="7.5" fill="#CCE0ED"/>
<path d="M18.3687 8.75H13.1312C10.8562 8.75 9.5 10.1062 9.5 12.3812V17.6125C9.5 19.8938 10.8562 21.25 13.1312 21.25H18.3625C20.6375 21.25 21.9937 19.8938 21.9937 17.6188V12.3812C22 10.1062 20.6437 8.75 18.3687 8.75ZM18.4812 16.4688L17.0937 17.8562C16.7562 18.1937 16.3187 18.3563 15.8812 18.3563C15.4437 18.3563 15 18.1875 14.6687 17.8562C14.3438 17.5312 14.1625 17.1 14.1625 16.6438C14.1625 16.1875 14.3438 15.75 14.6687 15.4312L15.55 14.55C15.7312 14.3687 16.0312 14.3687 16.2125 14.55C16.3937 14.7312 16.3937 15.0312 16.2125 15.2125L15.3312 16.0938C15.1812 16.2438 15.1 16.4375 15.1 16.6438C15.1 16.85 15.1812 17.05 15.3312 17.1938C15.6375 17.5 16.1312 17.5 16.4375 17.1938L17.825 15.8063C18.6187 15.0125 18.6187 13.725 17.825 12.9312C17.0312 12.1375 15.7437 12.1375 14.95 12.9312L13.4375 14.4437C13.1187 14.7625 12.9437 15.1813 12.9437 15.625C12.9437 16.0687 13.1187 16.4938 13.4375 16.8063C13.6187 16.9875 13.6187 17.2875 13.4375 17.4688C13.2562 17.65 12.9562 17.65 12.775 17.4688C12.275 16.9875 12 16.3313 12 15.6313C12 14.9313 12.2687 14.275 12.7625 13.7812L14.275 12.2688C15.4312 11.1125 17.3187 11.1125 18.475 12.2688C19.6375 13.425 19.6375 15.3125 18.4812 16.4688Z" fill="#163F75"/>
</svg>
