<svg width="31" height="30" viewBox="0 0 31 30" fill="none" xmlns="http://www.w3.org/2000/svg">
<rect x="0.25" width="30" height="30" rx="7.5" fill="#CCE0ED"/>
<path fill-rule="evenodd" clip-rule="evenodd" d="M11.5707 10.3125H15.1907C16.7045 10.3125 17.7613 11.3556 17.7613 12.8506V17.1494C17.7613 18.6444 16.7045 19.6875 15.1907 19.6875H11.5707C10.0569 19.6875 9 18.6444 9 17.1494V12.8506C9 11.3556 10.0569 10.3125 11.5707 10.3125ZM20.2235 11.7992C20.4978 11.6596 20.8197 11.6742 21.0816 11.8392C21.3435 12.0036 21.4997 12.2891 21.4997 12.6013V17.3989C21.4997 17.7117 21.3435 17.9966 21.0816 18.1609C20.9385 18.2504 20.7785 18.2961 20.6172 18.2961C20.4828 18.2961 20.3485 18.2643 20.2228 18.2003L19.2972 17.7333C18.9547 17.5594 18.7422 17.2104 18.7422 16.8227V13.1768C18.7422 12.7885 18.9547 12.4395 19.2972 12.2669L20.2235 11.7992Z" fill="#163F75"/>
</svg>
