<svg width="31" height="30" viewBox="0 0 31 30" fill="none" xmlns="http://www.w3.org/2000/svg">
<rect x="0.25" width="30" height="30" rx="7.5" fill="#CCE0ED"/>
<path d="M15.25 21.2063C12.1 21.2063 9.53125 18.6438 9.53125 15.4875V14.3125C9.53125 14.0687 9.73125 13.875 9.96875 13.875C10.2063 13.875 10.4063 14.075 10.4063 14.3125V15.4875C10.4063 18.1562 12.575 20.325 15.2437 20.325C17.9125 20.325 20.0812 18.1562 20.0812 15.4875V14.3125C20.0812 14.0687 20.2812 13.875 20.5188 13.875C20.7563 13.875 20.9562 14.075 20.9562 14.3125V15.4875C20.9687 18.6438 18.4 21.2063 15.25 21.2063Z" fill="#163F75"/>
<path d="M15.25 8.75C13.15 8.75 11.4375 10.4625 11.4375 12.5625V15.4938C11.4375 17.5938 13.15 19.3062 15.25 19.3062C17.35 19.3062 19.0625 17.5938 19.0625 15.4938V12.5625C19.0625 10.4625 17.35 8.75 15.25 8.75ZM16.6125 14.1188C16.5687 14.2875 16.4125 14.4 16.2437 14.4C16.2125 14.4 16.175 14.3938 16.1437 14.3875C15.5062 14.2125 14.8312 14.2125 14.1937 14.3875C13.9875 14.4438 13.7812 14.325 13.725 14.1188C13.6688 13.9188 13.7875 13.7063 13.9937 13.65C14.7625 13.4375 15.575 13.4375 16.3437 13.65C16.55 13.7063 16.6687 13.9125 16.6125 14.1188ZM17.1437 12.3875C17.0875 12.5438 16.9437 12.6375 16.7875 12.6375C16.7437 12.6375 16.7 12.6313 16.6562 12.6125C15.7 12.2625 14.65 12.2625 13.6937 12.6125C13.4937 12.6875 13.275 12.5875 13.2 12.3875C13.1312 12.1938 13.2312 11.975 13.4312 11.9C14.5562 11.4938 15.7937 11.4938 16.9125 11.9C17.1125 11.975 17.2125 12.1938 17.1437 12.3875Z" fill="#163F75"/>
</svg>
