<svg width="20" height="20" viewBox="0 0 20 20" fill="none" xmlns="http://www.w3.org/2000/svg">
<path d="M1.38205 11.8906L1.38241 11.8906C2.20979 11.8261 2.83776 11.1505 2.83904 10.3326C2.83896 9.51446 2.21095 8.83654 1.38239 8.77188C1.08168 8.74928 0.85 8.49789 0.85 8.19667V5.83841C0.85 4.74389 1.74389 3.85 2.83841 3.85H17.1614C18.2547 3.85 19.15 4.74404 19.15 5.83841V8.1987C19.15 8.49943 18.9176 8.75061 18.6171 8.77304M1.38205 11.8906L18.6057 8.62347M1.38205 11.8906C1.08247 11.9147 0.85 12.1637 0.85 12.4663V14.8263C0.85 15.9199 1.74379 16.8152 2.83841 16.8152H17.1614C18.2548 16.8152 19.15 15.9199 19.15 14.8263V12.466C19.15 12.1654 18.9178 11.9143 18.6174 11.8917M1.38205 11.8906L17.1607 10.3325M18.6171 8.77304C18.617 8.77304 18.6169 8.77305 18.6168 8.77306L18.6057 8.62347M18.6171 8.77304C18.6172 8.77303 18.6173 8.77302 18.6174 8.77302L18.6057 8.62347M18.6171 8.77304C17.7889 8.83762 17.162 9.51445 17.1607 10.3316M18.6057 8.62347C17.7002 8.69392 17.0121 9.43507 17.0107 10.3314M17.1607 10.3316V10.3314H17.0107M17.1607 10.3316V10.3325M17.1607 10.3316L17.0107 10.3314M17.0107 10.3314L17.1607 10.3325M17.1607 10.3325L17.0107 10.3327H17.1607V10.3325ZM17.1607 10.3325C17.162 11.1504 17.789 11.8271 18.6174 11.8917M18.6174 11.8917C18.6172 11.8917 18.617 11.8917 18.6168 11.8917L18.6057 12.0413L18.6174 11.8917ZM17.9959 5.83841C17.9959 5.36869 17.6314 5.00406 17.1614 5.00406H17.1333H17.1053H17.0773H17.0493H17.0213H16.9933H16.9653H16.9373H16.9093H16.8813H16.8532H16.8252H16.7972H16.7692H16.7412H16.7132H16.6852H16.6572H16.6292H16.6012H16.5732H16.5452H16.5172H16.4892H16.4612H16.4332H16.4052H16.3772H16.3492H16.3212H16.2932H16.2652H16.2372H16.2092H16.1812H16.1532H16.1252H16.0972H16.0692H16.0412H16.0132H15.9852H15.9572H15.9292H15.9012H15.8732H15.8452H15.8172H15.7892H15.7612H15.7332H15.7052H15.6772H15.6492H15.6213H15.5933H15.5653H15.5373H15.5093H15.4813H15.4533H15.4253H15.3973H15.3693H15.3414H15.3134H15.2854H15.2574H15.2294H15.2014H15.1734H15.1454H15.1175H15.0895H15.0615H15.0335H15.0055H14.9775H14.9495H14.9216H14.8936H14.8656H14.8376H14.8096H14.7816H14.7537H14.7257H14.6977H14.6697H14.6417H14.6138H14.5858H14.5578H14.5298H14.5018H14.4739H14.4459H14.4179H14.3899H14.3619H14.334H14.306H14.278H14.25H14.2221H14.1941H14.1661H14.1381H14.1102H14.0822H14.0542H14.0262H13.9983H13.9703H13.9423H13.9143H13.8864H13.8584H13.8304H13.8024H13.7745H13.7465H13.7185H13.6905H13.6626H13.6346H13.6066H13.5787H13.5507H13.5227H13.4947H13.4668H13.4388H13.4108H13.3829H13.3549H13.3269H13.299H13.271H13.243H13.215H13.1871H13.1591H13.1311H13.1032H13.0752H13.0472H13.0193H12.9913H12.9633H12.9354H12.9074H12.8794H12.8515H12.8235H12.7955H12.7676H12.7396H12.7116H12.6837H12.6557H12.6277H12.5998H12.5718H12.5439H12.5159H12.4879H12.46H12.432H12.404H12.3761H12.3481H12.3201H12.2922H12.2642H12.2363H12.2083H12.1803H12.1524H12.1244H12.0964H12.0685H12.0405H12.0126H11.9846H11.9566H11.9287H11.9007H11.8727H11.8448H11.8168H11.7889H11.7609H11.7329H11.705H11.677H11.6491H11.6211H11.5931H11.5652H11.5372H11.5093H11.4813H11.4533H11.4254H11.3974H11.3695H11.3415H11.3136H11.2856H11.2576H11.2297H11.2017H11.1738H11.1458H11.1178H11.0899H11.0619H11.034H11.006H10.978H10.9501H10.9221H10.8942H10.8662H10.8383H10.8103H10.7823H10.7544H10.7264H10.6985H10.6705H10.6426H10.6146H10.5866H10.5587H10.5307H10.5028H10.4748H10.4469H10.4189H10.3909H10.363H10.335H10.3071H10.2791H10.2512H10.2232H10.1952H10.1673H10.1393H10.1114H10.0834H10.0555H10.0275H9.99955H9.97159H9.94363H9.91568H9.88772H9.85977H9.83181H9.80385H9.7759H9.74794H9.71998H9.69203H9.66407H9.63611H9.60816H9.5802H9.55224H9.52429H9.49633H9.46837H9.44042H9.41246H9.3845H9.35655H9.32859H9.30063H9.27267H9.24472H9.21676H9.1888H9.16085H9.13289H9.10493H9.07697H9.04902H9.02106H8.9931H8.96515H8.93719H8.90923H8.88127H8.85332H8.82536H8.7974H8.76944H8.74149H8.71353H8.68557H8.65761H8.62965H8.6017H8.57374H8.54578H8.51782H8.48986H8.4619H8.43394H8.40599H8.37803H8.35007H8.32211H8.29415H8.26619H8.23823H8.21027H8.18231H8.15435H8.12639H8.09843H8.07047H8.04251H8.01455H7.98659H7.95863H7.93067H7.90271H7.87475H7.84679H7.81883H7.79087H7.76291H7.73495H7.70699H7.67903H7.65106H7.6231H7.59514H7.56718H7.53922H7.51126H7.48329H7.45533H7.42737H7.39941H7.37144H7.34348H7.31552H7.28755H7.25959H7.23163H7.20366H7.1757H7.14774H7.11977H7.09181H7.06384H7.03588H7.00791H6.97995H6.95198H6.92402H6.89605H6.86809H6.84012H6.81215H6.78419H6.75622H6.72825H6.70029H6.67232H6.64435H6.61639H6.58842H6.56045H6.53248H6.50452H6.47655H6.44858H6.42061H6.39264H6.36467H6.3367H6.30873H6.28076H6.25279H6.22482H6.19685H6.16888H6.14091H6.11294H6.08497H6.057H6.02903H6.00106H5.97308H5.94511H5.91714H5.88917H5.86119H5.83322H5.80525H5.77727H5.7493H5.72133H5.69335H5.66538H5.6374H5.60943H5.58145H5.55348H5.5255H5.49752H5.46955H5.44157H5.41359H5.38562H5.35764H5.32966H5.30168H5.27371H5.24573H5.21775H5.18977H5.16179H5.13381H5.10583H5.07785H5.04987H5.02189H4.99391H4.96593H4.93795H4.90997H4.88198H4.854H4.82602H4.79804H4.77005H4.74207H4.71409H4.6861H4.65812H4.63013H4.60215H4.57416H4.54618H4.51819H4.49021H4.46222H4.43423H4.40624H4.37826H4.35027H4.32228H4.29429H4.2663H4.23832H4.21033H4.18234H4.15435H4.12636H4.09837H4.07037H4.04238H4.01439H3.9864H3.95841H3.93041H3.90242H3.87443H3.84643H3.81844H3.79045H3.76245H3.73446H3.70646H3.67846H3.65047H3.62247H3.59447H3.56648H3.53848H3.51048H3.48248H3.45448H3.42648H3.39848H3.37048H3.34248H3.31448H3.28648H3.25848H3.23048H3.20248H3.17447H3.14647H3.11847H3.09046H3.06246H3.03446H3.00645H2.97845H2.95044H2.92243H2.89443H2.86642H2.83841C2.36822 5.00406 2.00383 5.36867 2.00383 5.83841V7.76336C3.14265 8.09091 3.99283 9.09892 3.99151 10.3325C3.99151 10.3325 3.99151 10.3326 3.99151 10.3327L3.84151 10.3325C3.84151 11.5296 2.98881 12.508 1.85383 12.7833L17.9959 5.83841ZM17.9959 5.83841V7.76494C16.8571 8.09254 16.008 9.10079 16.008 10.3327C16.008 11.5644 16.8569 12.5725 17.9959 12.9V14.8261C17.9959 15.2963 17.6313 15.6609 17.1614 15.6609H2.83841C2.36826 15.6609 2.00383 15.2963 2.00383 14.8261V12.8988L17.9959 5.83841Z" fill="white" stroke="white" stroke-width="0.3"/>
<path d="M12.1321 7.77746C12.0203 7.78062 11.9144 7.82691 11.8365 7.9064L7.56012 12.1584C7.14032 12.5595 7.75885 13.1818 8.16239 12.7643L12.4381 8.51138C12.7179 8.24084 12.5203 7.76888 12.1321 7.77746Z" fill="white"/>
<path d="M8.78752 9.12867C8.55086 9.36398 8.17803 9.36262 7.93934 9.12506C7.70065 8.88862 7.70065 8.51918 7.93685 8.2841C8.17329 8.04879 8.54635 8.04766 8.78527 8.28523C9.02396 8.52144 9.02396 8.89336 8.78752 9.12867ZM7.33256 7.68183C6.768 8.2439 6.77004 9.16616 7.33459 9.72732C7.89914 10.2892 8.82704 10.293 9.3916 9.73094C9.95615 9.17 9.95502 8.24526 9.38956 7.68319C8.82501 7.12202 7.89711 7.12089 7.33256 7.68183Z" fill="white"/>
<path d="M12.0617 12.3869C11.8253 12.622 11.4516 12.622 11.2126 12.3844C10.9739 12.1468 10.9751 11.7765 11.2115 11.5414C11.4477 11.3059 11.8194 11.3059 12.0586 11.5437C12.2973 11.7812 12.2986 12.1518 12.0617 12.3869ZM10.6061 10.9394C10.0424 11.5012 10.0424 12.4246 10.6081 12.9855C11.1727 13.5478 12.1019 13.5501 12.6665 12.9882C13.231 12.4273 13.2276 11.5041 12.6631 10.9416C12.0985 10.3805 11.1706 10.378 10.6061 10.9394Z" fill="white"/>
</svg>
