<svg width="16" height="16" viewBox="0 0 16 16" fill="none" xmlns="http://www.w3.org/2000/svg">
<g opacity="0.4">
<path fill-rule="evenodd" clip-rule="evenodd" d="M7.9974 13.668C11.1221 13.668 13.6641 11.126 13.6641 8.0013C13.6641 4.87664 11.1221 2.33463 7.9974 2.33463C4.87273 2.33463 2.33073 4.87664 2.33073 8.0013C2.33073 11.126 4.87273 13.668 7.9974 13.668ZM7.9974 1.33463C11.6734 1.33463 14.6641 4.3253 14.6641 8.0013C14.6641 11.6773 11.6734 14.668 7.9974 14.668C4.3214 14.668 1.33073 11.6773 1.33073 8.0013C1.33073 4.3253 4.3214 1.33463 7.9974 1.33463Z" fill="black"/>
<path fill-rule="evenodd" clip-rule="evenodd" d="M8 7.08525C8.276 7.08525 8.5 7.30925 8.5 7.58525V10.5312C8.5 10.8072 8.276 11.0312 8 11.0312C7.724 11.0312 7.5 10.8072 7.5 10.5312V7.58525C7.5 7.30925 7.724 7.08525 8 7.08525Z" fill="black"/>
<path fill-rule="evenodd" clip-rule="evenodd" d="M7.99406 4.80339C8.36273 4.80339 8.66406 5.10139 8.66406 5.47005C8.66406 5.83872 8.36873 6.13672 8.00073 6.13672H7.99406C7.6254 6.13672 7.3274 5.83872 7.3274 5.47005C7.3274 5.10139 7.6254 4.80339 7.99406 4.80339Z" fill="black"/>
</g>
</svg>
