<svg width="16" height="18" viewBox="0 0 16 18" fill="none" xmlns="http://www.w3.org/2000/svg">
<g clip-path="url(#clip0_3411_40368)">
<path d="M1.14399 0H10.854L16.0012 5.04654V16.8743C16.0012 17.1727 15.8808 17.4588 15.6665 17.6698C15.4522 17.8807 15.1615 17.9993 14.8584 17.9993H1.14476C0.841666 17.9993 0.55099 17.8807 0.336673 17.6698C0.122356 17.4588 0.00195313 17.1727 0.00195313 16.8743V1.12495C0.00195306 0.826727 0.12225 0.540704 0.336403 0.329756C0.550555 0.118808 0.841036 0.000198818 1.14399 0Z" fill="#50BEE8"/>
<path opacity="0.1" d="M15.984 5.06276H12.0002C11.6971 5.06276 11.4065 4.94424 11.1921 4.73327C10.9778 4.5223 10.8574 4.23616 10.8574 3.9378V0.0117188L15.984 5.06276Z" fill="black"/>
<path d="M2.50574 12.0498C2.45682 12.0547 2.40739 12.0495 2.36064 12.0345C2.31388 12.0195 2.27083 11.9951 2.23424 11.9627C2.19765 11.9304 2.16833 11.8909 2.14818 11.8467C2.12802 11.8026 2.11746 11.7548 2.11719 11.7064V8.55647C2.12531 8.46127 2.17005 8.37272 2.24226 8.30888C2.31447 8.24504 2.40871 8.21075 2.50574 8.21299H3.79482C6.36765 8.21299 6.30899 12.0476 3.84511 12.0476L2.50574 12.0498ZM2.86077 8.89097V11.3734H3.79482C5.31856 11.3734 5.38179 8.89097 3.79482 8.89097H2.86077Z" fill="white"/>
<path d="M8.11008 12.1045C7.83378 12.1264 7.5559 12.0906 7.29466 11.9994C7.03343 11.9081 6.79475 11.7635 6.5943 11.5751C6.39385 11.3866 6.23616 11.1585 6.13158 10.9058C6.02701 10.6531 5.97791 10.3815 5.98751 10.1088C5.98751 9.56868 6.20548 9.05069 6.59346 8.66876C6.98145 8.28684 7.50767 8.07227 8.05636 8.07227C8.60506 8.07227 9.13128 8.28684 9.51926 8.66876C9.90725 9.05069 10.1252 9.56868 10.1252 10.1088C10.134 10.3722 10.088 10.6346 9.99006 10.8799C9.89207 11.1251 9.74416 11.3481 9.55542 11.535C9.36668 11.7219 9.14109 11.8688 8.89254 11.9668C8.64398 12.0647 8.37771 12.1116 8.11008 12.1045ZM8.04836 8.79636C7.78456 8.7974 7.52699 8.87536 7.30817 9.0204C7.08935 9.16544 6.9191 9.37106 6.81891 9.61128C6.71872 9.85151 6.6931 10.1156 6.74526 10.3701C6.79743 10.6247 6.92505 10.8583 7.11201 11.0415C7.29897 11.2247 7.53689 11.3493 7.79571 11.3995C8.05454 11.4497 8.32268 11.4232 8.56625 11.3235C8.80983 11.2238 9.01793 11.0553 9.16427 10.8392C9.31061 10.6231 9.38864 10.3692 9.38849 10.1096C9.39494 9.93489 9.36464 9.7608 9.2995 9.5982C9.23435 9.43561 9.13576 9.28802 9.00992 9.16471C8.88409 9.0414 8.73371 8.94503 8.56824 8.88164C8.40277 8.81825 8.22577 8.78922 8.04836 8.79636Z" fill="white"/>
<path d="M10.432 10.1041C10.4141 9.84206 10.4525 9.57924 10.5449 9.33283C10.6372 9.08642 10.7814 8.862 10.968 8.67424C11.1545 8.48648 11.3793 8.33962 11.6275 8.24328C11.8757 8.14695 12.1418 8.1033 12.4083 8.1152C12.8869 8.10839 13.3493 8.28541 13.6974 8.60868C13.7354 8.64022 13.7665 8.67906 13.7888 8.72285C13.811 8.76664 13.8239 8.81445 13.8267 8.86332C13.8294 8.9122 13.8221 8.96112 13.8049 9.00708C13.7878 9.05304 13.7613 9.09506 13.7271 9.13059C13.6929 9.16611 13.6517 9.19439 13.606 9.21366C13.5603 9.23293 13.511 9.24279 13.4613 9.24266C13.4116 9.24252 13.3624 9.23239 13.3168 9.21287C13.2712 9.19335 13.2301 9.16487 13.1961 9.12916C13.0966 9.02319 12.9741 8.94075 12.8377 8.88802C12.7012 8.83529 12.5545 8.81363 12.4083 8.82467C12.2359 8.81534 12.0633 8.8422 11.9022 8.90348C11.7411 8.96475 11.595 9.05904 11.4737 9.18009C11.3524 9.30114 11.2586 9.44618 11.1985 9.60561C11.1385 9.76504 11.1135 9.93522 11.1253 10.1049C11.1107 10.2769 11.1335 10.4501 11.192 10.6129C11.2505 10.7757 11.3435 10.9244 11.4648 11.0491C11.5861 11.1738 11.733 11.2718 11.8956 11.3364C12.0583 11.401 12.2331 11.4309 12.4083 11.4241C12.7358 11.4176 13.0491 11.2911 13.2868 11.0693C13.3654 11.0136 13.4627 10.9894 13.5589 11.0018C13.655 11.0142 13.7427 11.0622 13.8041 11.1361C13.863 11.2143 13.8895 11.3116 13.878 11.4083C13.8665 11.5051 13.818 11.5938 13.7424 11.6565C13.4431 11.8898 13.0834 12.0358 12.704 12.0781C12.3247 12.1203 11.941 12.0571 11.5963 11.8955C11.2516 11.734 10.9599 11.4806 10.7541 11.164C10.5483 10.8475 10.4367 10.4806 10.432 10.1049V10.1041Z" fill="white"/>
</g>
<defs>
<clipPath id="clip0_3411_40368">
<rect width="16" height="18" fill="white"/>
</clipPath>
</defs>
</svg>
