<svg width="30" height="30" viewBox="0 0 30 30" fill="none" xmlns="http://www.w3.org/2000/svg">
<path fill-rule="evenodd" clip-rule="evenodd" d="M5.08789 6.56137C5.08789 9.62731 7.58199 12.1221 10.6483 12.1221C13.7145 12.1221 16.209 9.62731 16.209 6.56137C16.209 6.13795 16.1573 5.72713 16.0668 5.33055C16.0615 5.29842 16.0536 5.2676 16.043 5.23745C15.447 2.80895 13.2577 1 10.6483 1C8.09784 1 5.94797 2.72844 5.29595 5.07412C5.27243 5.12779 5.25818 5.18411 5.25255 5.24176C5.14852 5.66584 5.08789 6.10615 5.08789 6.56137ZM10.6483 11.0085C8.19624 11.0085 6.20043 9.01373 6.20043 6.56137C6.20043 6.24265 6.23555 5.93221 6.29982 5.63238C8.25323 4.30117 9.27134 4.63116 10.9209 5.17517C11.9699 5.52072 13.2587 5.94016 15.0527 5.97296C15.0785 6.16612 15.0964 6.36126 15.0964 6.56137C15.0964 9.01373 13.1006 11.0085 10.6483 11.0085ZM10.6483 2.11353C12.4953 2.11353 14.0823 3.24562 14.7539 4.85181C13.2954 4.78323 12.2266 4.43337 11.2698 4.11796C9.9164 3.67135 8.70348 3.27709 7.05289 3.95363C7.86228 2.84076 9.17062 2.11353 10.6483 2.11353Z" fill="#163F75"/>
<path fill-rule="evenodd" clip-rule="evenodd" d="M0.442606 24.8651C3.37039 25.8995 6.82099 26.4462 10.4193 26.4462C10.5317 26.4462 10.644 26.4455 10.7563 26.4445C10.8663 26.4455 10.9756 26.4462 11.0849 26.4462C13.2719 26.4462 15.3873 26.246 17.3812 25.8568C18.5543 27.7402 20.6386 29.0009 23.0171 29.0009C26.6774 29.0009 29.6552 26.0227 29.6552 22.3621C29.6552 18.7001 26.6774 15.7213 23.0171 15.7213C21.7806 15.7213 20.6257 16.0672 19.6331 16.6583C18.6395 15.1803 17.2791 13.9955 15.5745 13.1378C15.497 13.0983 15.4109 13.0781 15.3237 13.0781H12.7485H8.48549H6.18653C6.09939 13.0781 6.01391 13.0987 5.93573 13.1378C2.29927 14.9686 0.897826 17.9421 0.363423 20.1145C-0.2114 22.4515 0.064581 24.3443 0.0771708 24.4238C0.107651 24.6273 0.248458 24.7966 0.442606 24.8651ZM28.5423 22.3624C28.5423 25.4092 26.0641 27.8877 23.0171 27.8877C20.7387 27.8877 18.7783 26.5018 17.9335 24.5299C17.9278 24.5166 17.9222 24.5037 17.9166 24.4904C17.8513 24.3337 17.7917 24.174 17.7406 24.0107C17.7376 24.0011 17.7353 23.9911 17.7327 23.9815C17.6876 23.8361 17.6505 23.6873 17.618 23.5372C17.6108 23.5038 17.6025 23.4707 17.5962 23.4369C17.5657 23.2835 17.5422 23.1278 17.5246 22.9704C17.5206 22.9353 17.5177 22.8998 17.515 22.8644C17.4998 22.699 17.4895 22.5321 17.4895 22.3628C17.4895 22.1938 17.4998 22.0275 17.5147 21.8625C17.518 21.8274 17.5206 21.7922 17.5243 21.7571C17.5408 21.6074 17.564 21.4596 17.5922 21.3135C17.6015 21.2645 17.6127 21.2154 17.6237 21.1664C17.6522 21.0378 17.6843 20.911 17.7217 20.7857C17.7383 20.7304 17.7565 20.6754 17.7751 20.6207C17.8099 20.5164 17.8476 20.4133 17.8887 20.3116C17.9086 20.2619 17.9278 20.2116 17.9494 20.1625C18.005 20.0346 18.066 19.9091 18.1309 19.7865C18.1521 19.7457 18.175 19.706 18.1972 19.6659C18.2717 19.5337 18.3486 19.4028 18.4334 19.2776C18.4361 19.274 18.4387 19.2706 18.441 19.2667C18.5341 19.1292 18.6342 18.9966 18.7389 18.8681C18.7468 18.8582 18.7548 18.8482 18.7627 18.8386C19.7775 17.6161 21.3078 16.8358 23.0171 16.8358C26.0638 16.8352 28.5423 19.3144 28.5423 22.3624ZM12.0398 14.1917L11.5647 16.1441H9.69212L9.20078 14.1917H12.0398ZM1.44449 20.3805C2.13096 17.5935 3.77061 15.5119 6.32038 14.1917H8.05213L8.7184 16.8365C8.78068 17.0837 9.00299 17.2573 9.25877 17.2573H12.002C12.2584 17.2573 12.4821 17.082 12.5434 16.8322L13.1854 14.1917H15.1902C16.6738 14.9606 17.8602 16.0026 18.725 17.295C18.7216 17.301 18.7183 17.307 18.715 17.3129C17.2864 18.5318 16.3763 20.3414 16.3763 22.3624C16.3763 23.2 16.5386 23.9984 16.8232 24.7373C16.8335 24.7674 16.8381 24.7966 16.8504 24.827C15.0199 25.163 13.0847 25.3329 11.0856 25.3329C10.9783 25.3329 10.8696 25.3323 10.7616 25.3313C10.7583 25.3313 10.7546 25.3313 10.7516 25.3313C10.641 25.332 10.5307 25.3329 10.42 25.3329C7.0814 25.3329 3.88293 24.8482 1.14432 23.9292C1.09661 23.3279 1.05553 21.9622 1.44449 20.3805Z" fill="#163F75"/>
<path fill-rule="evenodd" clip-rule="evenodd" d="M21.7786 25.0013C21.8849 25.1014 22.0211 25.1507 22.1573 25.1507C22.3007 25.1507 22.4429 25.0964 22.5509 24.9877L26.6174 20.9229C26.8347 20.7052 26.8347 20.353 26.618 20.1357C26.4004 19.9184 26.0475 19.9184 25.8308 20.1354L22.144 23.8205L20.7485 22.5225C20.5236 22.3127 20.1714 22.3257 19.9617 22.5506C19.7526 22.7756 19.7646 23.1281 19.9895 23.3371L21.7786 25.0013Z" fill="#163F75"/>
<path fill-rule="evenodd" clip-rule="evenodd" d="M10.7556 20.4923C11.1562 20.4923 11.4841 20.1646 11.4841 19.7637C11.4841 19.3612 11.1562 19.0332 10.7556 19.0332C10.3527 19.0332 10.0254 19.3609 10.0254 19.7637C10.0254 20.1646 10.3527 20.4923 10.7556 20.4923Z" fill="#163F75"/>
<path fill-rule="evenodd" clip-rule="evenodd" d="M10.7556 23.6228C11.1562 23.6228 11.4841 23.2952 11.4841 22.8923C11.4841 22.4917 11.1562 22.1641 10.7556 22.1641C10.3527 22.1641 10.0254 22.4917 10.0254 22.8923C10.0254 23.2952 10.3527 23.6228 10.7556 23.6228Z" fill="#163F75"/>
</svg>
