<svg width="24" height="24" viewBox="0 0 24 24" fill="none" xmlns="http://www.w3.org/2000/svg">
<path d="M9.76094 14.3677C9.18594 13.7937 8.83594 13.0137 8.83594 12.1387C8.83594 10.3857 10.2479 8.97266 11.9999 8.97266C12.8669 8.97266 13.6649 9.32366 14.2299 9.89766" stroke="black" stroke-width="1.5" stroke-linecap="round" stroke-linejoin="round"/>
<path d="M15.1073 12.6992C14.8753 13.9892 13.8593 15.0072 12.5703 15.2412" stroke="black" stroke-width="1.5" stroke-linecap="round" stroke-linejoin="round"/>
<path d="M6.655 17.472C5.068 16.226 3.724 14.406 2.75 12.137C3.734 9.85798 5.087 8.02798 6.684 6.77198C8.271 5.51598 10.102 4.83398 12 4.83398C13.909 4.83398 15.739 5.52598 17.336 6.79098" stroke="black" stroke-width="1.5" stroke-linecap="round" stroke-linejoin="round"/>
<path d="M19.4487 8.99023C20.1367 9.90423 20.7417 10.9592 21.2507 12.1362C19.2837 16.6932 15.8077 19.4382 12.0008 19.4382C11.1378 19.4382 10.2868 19.2982 9.46875 19.0252" stroke="black" stroke-width="1.5" stroke-linecap="round" stroke-linejoin="round"/>
<path d="M19.8912 4.25L4.11719 20.024" stroke="black" stroke-width="1.5" stroke-linecap="round" stroke-linejoin="round"/>
</svg>
