<svg width="20" height="20" viewBox="0 0 20 20" fill="none" xmlns="http://www.w3.org/2000/svg">
<g opacity="0.8">
<path d="M10.0009 18.0018C14.4197 18.0018 18.0018 14.4197 18.0018 10.0009C18.0018 5.58212 14.4197 2 10.0009 2C5.58212 2 2 5.58212 2 10.0009C2 14.4197 5.58212 18.0018 10.0009 18.0018Z" stroke="white" stroke-width="1.7602" stroke-miterlimit="10" stroke-linecap="round" stroke-linejoin="round"/>
<path d="M10.01 4.64314C9.30941 4.61801 8.61493 4.78156 7.99916 5.11668C7.38339 5.4518 6.86895 5.94618 6.50963 6.54815C6.43745 6.6551 6.40824 6.78532 6.42781 6.91285C6.44739 7.04038 6.51431 7.15585 6.61524 7.23623L7.49534 7.9211C7.54536 7.96002 7.60258 7.98865 7.66372 8.00533C7.72486 8.02202 7.78869 8.02644 7.85154 8.01833C7.91439 8.01022 7.97502 7.98975 8.02992 7.9581C8.08482 7.92644 8.13291 7.88423 8.17141 7.83389C8.68107 7.17702 9.05871 6.79858 9.8516 6.79858C10.4773 6.79858 11.251 7.21302 11.251 7.83869C11.251 8.31075 10.8725 8.55317 10.254 8.90921C9.53477 9.32446 8.58186 9.84372 8.58186 11.1359V11.3407C8.5808 11.4057 8.59256 11.4703 8.61648 11.5308C8.64039 11.5913 8.67599 11.6465 8.72124 11.6932C8.76649 11.74 8.8205 11.7773 8.88019 11.8032C8.93987 11.8291 9.00407 11.8429 9.06911 11.8439H10.5429C10.6079 11.843 10.6721 11.8293 10.7319 11.8035C10.7916 11.7777 10.8457 11.7405 10.891 11.6938C10.9363 11.6471 10.972 11.592 10.996 11.5316C11.02 11.4711 11.0319 11.4065 11.0309 11.3415V11.2199C11.0309 10.323 13.5792 10.2854 13.5792 7.8595C13.5792 6.02969 11.7366 4.64314 10.01 4.64314ZM9.806 12.46C9.51744 12.4517 9.23298 12.5297 8.989 12.684C8.74503 12.8384 8.55265 13.0619 8.43648 13.3262C8.3203 13.5905 8.28562 13.8834 8.33687 14.1675C8.38812 14.4516 8.52296 14.7139 8.72415 14.9209C8.92534 15.1279 9.18373 15.2702 9.46624 15.3296C9.74875 15.3889 10.0425 15.3626 10.31 15.254C10.5775 15.1454 10.8065 14.9595 10.9677 14.72C11.1289 14.4806 11.215 14.1984 11.215 13.9098C11.2199 13.5308 11.0743 13.1654 10.8102 12.8936C10.5461 12.6218 10.1849 12.4659 9.806 12.46Z" fill="white"/>
</g>
</svg>
