<svg width="20" height="20" viewBox="0 0 20 20" fill="none" xmlns="http://www.w3.org/2000/svg">
<path d="M8.42589 9.29297H6.21756C5.69256 9.29297 5.26758 9.71793 5.26758 10.2429V14.5096H8.42589V9.29297V9.29297Z" stroke="white" stroke-width="1.5" stroke-miterlimit="10" stroke-linecap="round" stroke-linejoin="round"/>
<path d="M10.6346 5.5H9.36796C8.84296 5.5 8.41797 5.92501 8.41797 6.45001V14.5H11.5763V6.45001C11.5763 5.92501 11.1596 5.5 10.6346 5.5Z" stroke="white" stroke-width="1.5" stroke-miterlimit="10" stroke-linecap="round" stroke-linejoin="round"/>
<path d="M13.7904 10.707H11.582V14.4987H14.7404V11.657C14.732 11.132 14.307 10.707 13.7904 10.707Z" stroke="white" stroke-width="1.5" stroke-miterlimit="10" stroke-linecap="round" stroke-linejoin="round"/>
<path d="M7.49935 18.3346H12.4993C16.666 18.3346 18.3327 16.668 18.3327 12.5013V7.5013C18.3327 3.33464 16.666 1.66797 12.4993 1.66797H7.49935C3.33268 1.66797 1.66602 3.33464 1.66602 7.5013V12.5013C1.66602 16.668 3.33268 18.3346 7.49935 18.3346Z" stroke="white" stroke-width="1.5" stroke-linecap="round" stroke-linejoin="round"/>
</svg>
