<svg width="17" height="16" viewBox="0 0 17 16" fill="none" xmlns="http://www.w3.org/2000/svg">
<path d="M8.83222 0C8.48812 0 8.14401 0.178089 7.96592 0.537287L5.99486 4.53374L1.58489 5.17365C0.794048 5.28835 0.47711 6.26332 1.05062 6.82173L4.24114 9.93075L3.48652 14.3226C3.35069 15.1104 4.18077 15.7111 4.88709 15.3398L8.83222 13.2692V0Z" fill="#FFC403"/>
<path d="M8.78496 0C9.12907 0 9.47318 0.178089 9.65127 0.537287L11.6223 4.53374L16.0323 5.17365C16.8231 5.28835 17.1401 6.26332 16.5666 6.82173L13.3761 9.93075L14.1307 14.3226C14.2665 15.1104 13.4364 15.7111 12.7301 15.3398L8.78496 13.2692V0Z" fill="#FFC403"/>
</svg>
