<svg width="17" height="16" viewBox="0 0 17 16" fill="none" xmlns="http://www.w3.org/2000/svg">
<g clip-path="url(#clip0_3228_31135)">
<path d="M8.0584 11.6301L11.8104 13.6042L11.095 9.42667L14.1316 6.46857L9.93589 5.85884L8.0584 2.05558V0C8.40251 0 8.74661 0.178089 8.9247 0.537287L10.8958 4.53374L15.3057 5.17365C16.0966 5.28835 16.4135 6.26332 15.84 6.82173L12.6495 9.93075L13.4041 14.3226C13.5399 15.1104 12.7099 15.7111 12.0035 15.3398L8.0584 13.2692V11.6301Z" fill="#FFC403"/>
</g>
<path d="M8.11347 0C7.76937 0 7.42526 0.178089 7.24717 0.537287L5.27611 4.53374L0.866136 5.17365C0.0752984 5.28835 -0.24164 6.26332 0.331868 6.82173L3.52239 9.93075L2.76777 14.3226C2.63194 15.1104 3.46202 15.7111 4.16834 15.3398L8.11347 13.2692V0Z" fill="#FFC403"/>
<defs>
<clipPath id="clip0_3228_31135">
<rect width="8.075" height="15.4545" fill="white" transform="translate(8.08594)"/>
</clipPath>
</defs>
</svg>
