<svg width="14" height="12" viewBox="0 0 14 12" fill="none" xmlns="http://www.w3.org/2000/svg">
<g clip-path="url(#clip0_1784_24625)">
<path d="M13.9447 5.2087C13.7395 3.69477 12.9454 2.31362 11.7244 1.34697C10.5034 0.38031 8.94744 -0.0990693 7.37389 0.00656607C5.80033 0.112201 4.32766 0.794915 3.25619 1.91547C2.18471 3.03602 1.59513 4.51002 1.60768 6.03689L0.587226 5.07768L0 5.66195L2.0767 7.61276L4.09112 5.60244L3.48756 5.0355L2.44841 6.07076C2.43354 4.89931 2.82939 3.75761 3.5713 2.83203C4.31321 1.90645 5.35735 1.2517 6.53326 0.974688C7.70916 0.697679 8.94741 0.814768 10.0457 1.30685C11.144 1.79893 12.0375 2.6369 12.5803 3.68398C13.1231 4.73105 13.2832 5.92536 13.0344 7.07188C12.7856 8.21839 12.1426 9.24938 11.2105 9.99651C10.2783 10.7436 9.11196 11.1628 7.90196 11.1855C6.69197 11.2082 5.50983 10.8331 4.54846 10.1215L4.03748 10.7682C5.11336 11.5702 6.43311 12.0049 7.79098 12.0045C8.0693 12.0046 8.34738 11.9867 8.62325 11.951C10.2524 11.7406 11.7285 10.9124 12.727 9.64859C13.7255 8.3848 14.1646 6.78885 13.9479 5.21169L13.9447 5.2087Z" fill="#508FF4"/>
<path d="M7.00781 2.23828V6.75579H10.108V6.00287H7.77467V2.23828H7.00781Z" fill="#508FF4"/>
</g>
<defs>
<clipPath id="clip0_1784_24625">
<rect width="14" height="12" fill="white"/>
</clipPath>
</defs>
</svg>
