<svg width="24" height="24" viewBox="0 0 24 24" fill="none" xmlns="http://www.w3.org/2000/svg">
<path d="M0 5C0 2.23858 2.23858 0 5 0H19C21.7614 0 24 2.23858 24 5V19C24 21.7614 21.7614 24 19 24H5C2.23858 24 0 21.7614 0 19V5Z" fill="white"/>
<path d="M16.774 7.29394C16.7141 7.23412 16.3553 6.81549 16.2357 6.66597C16.2058 6.63604 16.1728 6.61431 16.1384 6.59949C15.8359 6.30492 15.5593 6.09161 15.3087 6.00807C15.3386 5.67912 15.2488 5.29039 15.0395 4.93155C14.591 4.09431 13.6042 3.58594 12.0492 3.58594C10.4943 3.58594 9.50745 4.09431 9.0589 4.93159C8.84959 5.29043 8.75988 5.67916 8.75988 6.00811C8.52064 6.09782 8.25151 6.30713 7.89267 6.66597C7.77307 6.81549 7.62354 6.9351 7.50394 7.08462C7.44412 7.17433 7.38434 7.23415 7.35441 7.26404C6.51713 8.5798 5.97887 10.8225 5.70974 13.753C5.4705 16.0855 5.44061 18.5376 5.4705 20.6906C5.4705 20.7008 5.4705 20.7106 5.4705 20.7205C5.4705 20.8561 5.4705 20.9679 5.4705 21.0793C5.4705 21.1232 5.4705 21.1669 5.4705 21.1989C5.4705 21.2106 5.4705 21.2208 5.4705 21.2288C5.4705 21.3784 5.62003 21.5278 5.76952 21.5278H6.96564C7.08525 21.5278 7.20488 21.468 7.23477 21.3484L8.01865 19.4563C8.06526 19.4998 8.11299 19.5419 8.16176 19.5824V20.9298C8.16176 21.2587 8.43089 21.5278 8.75984 21.5278H15.3386C15.6675 21.5278 15.9366 21.2587 15.9366 20.9298V19.6067C15.9958 19.5587 16.0536 19.5087 16.1097 19.4563L16.7405 20.979L16.8637 21.3484C16.9235 21.468 17.0132 21.5278 17.1328 21.5278H17.1627H18.3289H18.3588C18.5083 21.5278 18.6578 21.4082 18.6578 21.2288C18.6578 21.1989 18.6578 21.169 18.6578 21.0793C18.6578 20.9597 18.6578 20.8401 18.6578 20.6906C18.7176 18.5376 18.6579 16.0855 18.4186 13.753C18.1495 10.8225 17.6112 8.57977 16.774 7.29394Z" fill="#1DC8FD"/>
<path d="M18.05 19.4633H16.6845L16.534 19.1045C16.5363 19.0482 16.5384 18.9925 16.5406 18.9365C16.5543 18.9028 16.5639 18.8691 16.5639 18.8353C16.6835 15.1572 16.6536 12.137 16.534 9.68493C16.5097 8.98029 16.4657 8.3744 16.418 7.86719C17.1037 9.06436 17.5512 11.1548 17.8198 13.8415C17.9893 15.7058 18.0607 17.6485 18.05 19.4633Z" fill="#1DC8FD"/>
<path d="M17.3432 20.9283L16.9844 20.0312H18.0455C18.0419 20.263 18.0373 20.4928 18.031 20.719C18.031 20.7984 18.031 20.8544 18.031 20.9283H17.3432Z" fill="#1DC8FD"/>
<path d="M7.6834 7.89062C7.63487 8.41816 7.58991 9.02672 7.56527 9.71671C7.50745 11.2775 7.47458 13.087 7.49042 15.1604C7.49592 16.3824 7.51975 17.6882 7.56527 19.0765L7.4148 19.4353H6.0791C6.06876 17.632 6.14018 15.674 6.30933 13.8135C6.57433 11.193 7.01342 9.124 7.6834 7.89062Z" fill="#1DC8FD"/>
<path d="M6.09766 20.9283C6.09766 20.8752 6.09766 20.7984 6.09766 20.719C6.09766 20.7091 6.09766 20.6991 6.09766 20.6891C6.09766 20.487 6.09766 20.2593 6.09766 20.0312H7.16163L6.78541 20.9283H6.09766Z" fill="#1DC8FD"/>
<path d="M8.75781 20.9302V19.9766C8.86988 20.0337 8.98521 20.0842 9.10344 20.128C9.10603 20.129 9.10859 20.13 9.11122 20.131C9.13817 20.1408 9.16529 20.1503 9.19252 20.1595C9.19595 20.1607 9.19932 20.1619 9.20275 20.1631C9.53527 20.274 9.88868 20.3321 10.253 20.3321H13.8713C14.3917 20.3321 14.8899 20.2137 15.3366 19.9918V20.9302H8.75781Z" fill="#1DC8FD"/>
<path opacity="0.2" d="M14.3156 19.6969C14.3017 19.6992 14.2877 19.7013 14.2738 19.7034C14.2532 19.7064 14.2326 19.7093 14.212 19.7119C14.2027 19.713 14.1934 19.7143 14.184 19.7154C14.1531 19.7189 14.1222 19.722 14.0911 19.7245C14.0852 19.725 14.0793 19.7253 14.0733 19.7257C14.0469 19.7276 14.0204 19.7292 13.994 19.7304C13.9856 19.7307 13.9773 19.7311 13.9689 19.7314C13.9371 19.7325 13.9053 19.7333 13.8734 19.7333H10.2551C10.2232 19.7333 10.1912 19.7325 10.1593 19.7314C10.1513 19.7311 10.1433 19.7308 10.1352 19.7304C10.107 19.7291 10.0787 19.7275 10.0505 19.7254C10.0468 19.7251 10.043 19.7249 10.0393 19.7246C10.0055 19.7219 9.97181 19.7186 9.93813 19.7146C9.9361 19.7143 9.9341 19.7141 9.9321 19.7138C9.89829 19.7098 9.86454 19.7051 9.83087 19.6997L9.83009 19.6996C9.5493 19.6548 9.27407 19.5653 9.01559 19.4311C9.01426 19.4304 9.01296 19.4297 9.01167 19.429C8.98654 19.4159 8.96166 19.402 8.93685 19.3881C8.92581 19.3819 8.91474 19.3757 8.90381 19.3692C8.89571 19.3645 8.88772 19.3595 8.87962 19.3547C8.60797 19.1916 8.36369 18.9777 8.16188 18.7166C8.11141 17.1904 8.08765 15.7817 8.08594 14.4829C8.08822 12.7764 8.12666 11.2468 8.1918 9.8951C8.24626 8.53326 8.35034 7.46943 8.41366 7.04191C8.61757 6.83915 8.79244 6.69333 8.89991 6.63324C8.97624 6.76805 9.08123 6.92052 9.20854 7.08417C9.56738 7.53272 10.0159 7.80185 10.5542 7.80185C10.7336 7.80185 10.8532 7.68225 10.8532 7.50283C10.8532 7.32341 10.7336 7.2038 10.5542 7.2038C10.2252 7.2038 9.92622 7.02439 9.65709 6.72536C9.56738 6.60576 9.47767 6.48613 9.41785 6.36652C9.37962 6.29006 9.36581 6.23823 9.35302 6.20284C9.33785 5.89457 9.40131 5.56457 9.56734 5.26011C9.92618 4.57233 10.7037 4.18359 12.0493 4.18359C13.395 4.18359 14.1725 4.57233 14.5313 5.23022C14.7107 5.55917 14.7706 5.91801 14.7406 6.21703C14.7404 6.21861 14.7405 6.22015 14.7403 6.22173C14.6731 6.34424 14.5117 6.60201 14.4416 6.69547C14.1724 6.99449 13.8734 7.17391 13.5445 7.17391C13.3651 7.17391 13.2455 7.29351 13.2455 7.47293C13.2455 7.65235 13.3651 7.77196 13.5445 7.77196C14.0827 7.77196 14.5313 7.50283 14.8901 7.05428C15.0201 6.90569 15.127 6.74558 15.2037 6.60261C15.3221 6.66341 15.5171 6.81413 15.7274 7.02439C15.7274 7.05428 15.7573 7.38322 15.7872 7.59254C15.847 8.16069 15.9068 8.87837 15.9368 9.71568C16.0564 12.108 16.0863 15.0983 15.9666 18.7166C15.5594 19.2436 14.9793 19.5785 14.3495 19.6909C14.3382 19.6929 14.3269 19.6951 14.3156 19.6969Z" fill="#1DC8FD"/>
<path opacity="0.29" d="M11.5981 7.17511C11.4189 7.17511 11.2393 7.08565 11.1198 6.93612L10.4022 6.03895C10.1032 5.65011 10.3722 5.08203 10.8805 5.08203H13.2129C13.7212 5.08203 13.9906 5.65011 13.6915 6.03895L12.9739 6.96583C12.8541 7.08565 12.6749 7.17511 12.4953 7.17511H11.5981Z" fill="#FE7058"/>
<path d="M11.4496 10.4647V8.07246C11.4496 7.89304 11.33 7.77344 11.1506 7.77344C10.9712 7.77344 10.8516 7.89304 10.8516 8.07246V10.4647C10.8516 10.6442 10.9712 10.7638 11.1506 10.7638C11.33 10.7638 11.4496 10.6442 11.4496 10.4647Z" fill="#FA0036"/>
<path d="M12.6445 10.4647C12.6445 10.6442 12.7641 10.7638 12.9436 10.7638C13.123 10.7638 13.2426 10.6442 13.2426 10.4647V8.07246C13.2426 7.89304 13.123 7.77344 12.9436 7.77344C12.7641 7.77344 12.6445 7.89304 12.6445 8.07246V10.4647Z" fill="#FA0036"/>
<path d="M12.0471 19.1335H9.05687C8.87731 19.1335 8.75781 19.014 8.75781 18.8345V17.6382C8.75781 17.459 8.87731 17.3392 9.05687 17.3392C9.6847 17.3392 10.2531 16.5618 10.2531 15.5452C10.2531 15.3656 10.3726 15.2461 10.5518 15.2461H12.0471H13.5424C13.7216 15.2461 13.8415 15.3656 13.8415 15.5452C13.8415 16.5618 14.4095 17.3392 15.0374 17.3392C15.2169 17.3392 15.3364 17.459 15.3364 17.6382V18.8345C15.3364 19.014 15.2169 19.1335 15.0374 19.1335H12.0471Z" fill="#FA0036"/>
</svg>
