<svg width="16" height="18" viewBox="0 0 16 18" fill="none" xmlns="http://www.w3.org/2000/svg">
<g clip-path="url(#clip0_3411_40363)">
<path d="M1.14399 0H10.854L16.0012 5.04654V16.8743C16.0012 17.1727 15.8808 17.4588 15.6665 17.6698C15.4522 17.8807 15.1615 17.9993 14.8584 17.9993H1.14476C0.841666 17.9993 0.55099 17.8807 0.336673 17.6698C0.122356 17.4588 0.00195313 17.1727 0.00195313 16.8743V1.12495C0.00195306 0.826727 0.12225 0.540704 0.336403 0.329756C0.550555 0.118808 0.841036 0.000198818 1.14399 0Z" fill="#576D7E"/>
<path opacity="0.1" d="M15.984 5.06276H12.0002C11.6971 5.06276 11.4065 4.94424 11.1921 4.73327C10.9778 4.5223 10.8574 4.23616 10.8574 3.9378V0.0117188L15.984 5.06276Z" fill="black"/>
<path d="M3.84863 12.5996H2.90234V8.39844H3.84863V12.5996ZM9.59375 12.5996H8.65918V10.0859C8.65918 9.81445 8.6709 9.51465 8.69434 9.18652H8.6709C8.62207 9.44434 8.57812 9.62988 8.53906 9.74316L7.55469 12.5996H6.78125L5.7793 9.77246C5.75195 9.69629 5.70801 9.50098 5.64746 9.18652H5.62109C5.64648 9.60059 5.65918 9.96387 5.65918 10.2764V12.5996H4.80664V8.39844H6.19238L7.05078 10.8887C7.11914 11.0879 7.16895 11.2881 7.2002 11.4893H7.21777C7.27051 11.2568 7.32617 11.0547 7.38477 10.8828L8.24316 8.39844H9.59375V12.5996ZM13.9971 12.3184C13.5869 12.5547 13.0771 12.6729 12.4678 12.6729C11.792 12.6729 11.2588 12.4863 10.8682 12.1133C10.4795 11.7383 10.2852 11.2227 10.2852 10.5664C10.2852 9.90625 10.498 9.36816 10.9238 8.95215C11.3496 8.53613 11.916 8.32812 12.623 8.32812C13.0684 8.32812 13.4609 8.38965 13.8008 8.5127V9.40039C13.4766 9.21289 13.0801 9.11914 12.6113 9.11914C12.2188 9.11914 11.8984 9.24707 11.6504 9.50293C11.4043 9.75684 11.2812 10.0967 11.2812 10.5225C11.2812 10.9541 11.3916 11.2881 11.6123 11.5244C11.835 11.7607 12.1348 11.8789 12.5117 11.8789C12.7383 11.8789 12.918 11.8467 13.0508 11.7822V10.9619H12.21V10.2061H13.9971V12.3184Z" fill="white" fill-opacity="0.85"/>
</g>
<defs>
<clipPath id="clip0_3411_40363">
<rect width="16" height="18" fill="white"/>
</clipPath>
</defs>
</svg>
