<svg width="14" height="16" viewBox="0 0 14 16" fill="none" xmlns="http://www.w3.org/2000/svg">
<g clip-path="url(#clip0_3246_35128)">
<path opacity="0.8" d="M4.37138 4.5V6H9.22818V4.5C9.23294 4.17641 9.17391 3.85506 9.05447 3.55429C8.93502 3.25352 8.75749 2.97922 8.53203 2.74707C8.30656 2.51492 8.03757 2.32945 7.74041 2.20127C7.44326 2.07308 7.12377 2.00469 6.80018 2C6.47652 2.00459 6.15695 2.0729 5.8597 2.20104C5.56246 2.32918 5.29337 2.51463 5.06782 2.74679C4.84227 2.97895 4.66467 3.25328 4.54517 3.55411C4.42567 3.85493 4.36662 4.17635 4.37138 4.5ZM2.42818 6V4.5C2.41172 3.32365 2.86298 2.18889 3.68278 1.34509C4.50257 0.501287 5.62384 0.0174852 6.80018 0C7.97638 0.0176952 9.09744 0.50159 9.91707 1.34537C10.7367 2.18915 11.1878 3.32379 11.1714 4.5V6H11.657C12.1797 6.00801 12.6779 6.2231 13.0423 6.59807C13.4066 6.97304 13.6072 7.47724 13.6002 8V14C13.6072 14.5229 13.4065 15.0272 13.042 15.4022C12.6775 15.7772 12.1791 15.9922 11.6562 16H1.94258C1.41997 15.9918 0.921963 15.7766 0.557816 15.4017C0.193669 15.0267 -0.00687605 14.5226 0.000180089 14V8C-0.00687605 7.47737 0.193669 6.97329 0.557816 6.59835C0.921963 6.2234 1.41997 6.00822 1.94258 6H2.42818Z" fill="white"/>
</g>
<defs>
<clipPath id="clip0_3246_35128">
<rect width="13.5992" height="16" fill="white"/>
</clipPath>
</defs>
</svg>
