<svg width="24" height="24" viewBox="0 0 24 24" fill="none" xmlns="http://www.w3.org/2000/svg">
<path d="M7.92 2H4.54C3.14 2 2 3.15 2 4.561V7.97C2 9.39 3.14 10.53 4.54 10.53H7.92C9.33 10.53 10.46 9.39 10.46 7.97V4.561C10.46 3.15 9.33 2 7.92 2Z" fill="black"/>
<path d="M7.92 13.4697H4.54C3.14 13.4697 2 14.6107 2 16.0307V19.4397C2 20.8497 3.14 21.9997 4.54 21.9997H7.92C9.33 21.9997 10.46 20.8497 10.46 19.4397V16.0307C10.46 14.6107 9.33 13.4697 7.92 13.4697Z" fill="black"/>
<path opacity="0.4" d="M19.46 2H16.08C14.67 2 13.54 3.15 13.54 4.561V7.97C13.54 9.39 14.67 10.53 16.08 10.53H19.46C20.86 10.53 22 9.39 22 7.97V4.561C22 3.15 20.86 2 19.46 2Z" fill="black"/>
<path d="M19.46 13.4697H16.08C14.67 13.4697 13.54 14.6107 13.54 16.0307V19.4397C13.54 20.8497 14.67 21.9997 16.08 21.9997H19.46C20.86 21.9997 22 20.8497 22 19.4397V16.0307C22 14.6107 20.86 13.4697 19.46 13.4697Z" fill="black"/>
</svg>
