<svg width="16" height="18" viewBox="0 0 16 18" fill="none" xmlns="http://www.w3.org/2000/svg">
<g id="Component 5 &#226;&#128;&#147; 2 1" clip-path="url(#clip0_3246_36822)">
<path id="Path 95" d="M1.14277 0H10.8528L16 5.04654V16.8743C16 17.1727 15.8796 17.4588 15.6653 17.6698C15.4509 17.8807 15.1603 17.9993 14.8572 17.9993H1.14354C0.840445 17.9993 0.549769 17.8807 0.335452 17.6698C0.121135 17.4588 0.000732422 17.1727 0.000732422 16.8743V1.12495C0.000732355 0.826727 0.12103 0.540704 0.335182 0.329756C0.549334 0.118808 0.839816 0.000198817 1.14277 0Z" fill="#E2574C"/>
<path id="Path 96" d="M15.9832 5.19175H11.8996C11.5887 5.19155 11.2905 5.06989 11.0707 4.85348C10.8508 4.63706 10.7273 4.3436 10.7271 4.03755V0.0117188L15.9832 5.19175Z" fill="#B53629"/>
<path id="Path 97" d="M12.4733 9.0006C12.5693 8.98237 12.6558 8.93183 12.718 8.85765C12.7802 8.78348 12.8142 8.6903 12.8142 8.59412C12.8142 8.49794 12.7802 8.40475 12.718 8.33057C12.6558 8.2564 12.5693 8.20586 12.4733 8.18763H11.1583C11.1008 8.19017 11.0445 8.20429 10.9927 8.2291C10.941 8.25392 10.8949 8.28891 10.8574 8.33192C10.82 8.37493 10.7918 8.42504 10.7748 8.47917C10.7578 8.53329 10.7522 8.59028 10.7584 8.64661V11.9577C10.7584 12.2532 10.9222 12.4167 11.1439 12.4167C11.3656 12.4167 11.5248 12.2525 11.5248 11.9577V11.0488H12.321C12.3734 11.0475 12.425 11.0355 12.4725 11.0137C12.52 10.9919 12.5625 10.9606 12.5972 10.9219C12.6319 10.8832 12.658 10.8378 12.6741 10.7887C12.6901 10.7395 12.6957 10.6876 12.6905 10.6363C12.6949 10.5856 12.6886 10.5347 12.6721 10.4865C12.6556 10.4384 12.6292 10.3941 12.5945 10.3564C12.5598 10.3188 12.5176 10.2886 12.4706 10.2677C12.4235 10.2468 12.3726 10.2357 12.321 10.2351H11.5286V8.9991L12.4733 9.0006ZM8.03621 8.18763H7.0732C7.01263 8.18592 6.95237 8.19671 6.89629 8.2193C6.8402 8.24189 6.78954 8.27578 6.74756 8.3188C6.70559 8.36182 6.67322 8.41301 6.65254 8.46908C6.63186 8.52514 6.62334 8.58486 6.62751 8.64437V11.963C6.62438 12.0226 6.63411 12.0823 6.65605 12.138C6.67798 12.1937 6.71164 12.2442 6.75481 12.2862C6.79797 12.3282 6.84967 12.3607 6.90652 12.3817C6.96336 12.4026 7.02406 12.4115 7.08463 12.4077H8.09258C8.36447 12.4185 8.63557 12.3721 8.88776 12.2715C9.13995 12.1708 9.36741 12.0184 9.55493 11.8243C9.74245 11.6302 9.88571 11.3989 9.97513 11.1459C10.0645 10.8929 10.0981 10.6241 10.0734 10.3573C10.1087 10.0779 10.0815 9.79421 9.99382 9.52618C9.90612 9.25815 9.75999 9.01222 9.56567 8.80557C9.37135 8.59893 9.13352 8.43657 8.86881 8.32983C8.6041 8.22309 8.31891 8.17456 8.03316 8.18763H8.03621ZM8.08268 11.5895H7.4968V9.00585H8.02478C8.82398 9.00585 9.16758 9.55632 9.16758 10.316C9.16834 11.027 8.82702 11.5895 8.07963 11.5895H8.08268ZM4.56361 8.18763H3.60898C3.5493 8.18576 3.48994 8.19675 3.43502 8.21982C3.3801 8.24289 3.33097 8.2775 3.29106 8.32121C3.25115 8.36493 3.22142 8.4167 3.20396 8.47291C3.18649 8.52912 3.18172 8.5884 3.18996 8.64661V11.9577C3.18996 12.2532 3.36214 12.4167 3.59299 12.4167C3.82383 12.4167 3.99602 12.2525 3.99602 11.9577V10.9903H4.59256C4.77609 10.9923 4.95808 10.957 5.12708 10.8865C5.29609 10.816 5.44847 10.7119 5.57467 10.5807C5.70087 10.4495 5.79815 10.2941 5.86042 10.1241C5.92268 9.95417 5.94858 9.77336 5.93649 9.59308C5.94772 9.40996 5.92022 9.22654 5.85573 9.05442C5.79125 8.88229 5.69118 8.72521 5.56185 8.59311C5.43253 8.46102 5.27676 8.35678 5.10441 8.28698C4.93206 8.21719 4.74687 8.18335 4.56056 8.18763H4.56361ZM4.54761 10.2126H3.99906V8.96535H4.54761C4.70137 8.9857 4.84241 9.06028 4.94454 9.17524C5.04667 9.2902 5.10296 9.43773 5.10296 9.59045C5.10296 9.74317 5.04667 9.89071 4.94454 10.0057C4.84241 10.1206 4.70137 10.1952 4.54761 10.2156V10.2126Z" fill="white"/>
</g>
<defs>
<clipPath id="clip0_3246_36822">
<rect width="16" height="18" fill="white"/>
</clipPath>
</defs>
</svg>
