<svg width="20" height="20" viewBox="0 0 20 20" fill="none" xmlns="http://www.w3.org/2000/svg">
<g opacity="0.8">
<path fill-rule="evenodd" clip-rule="evenodd" d="M2.5 5.41667C2.5 3.22899 2.52342 2.5 5.41667 2.5C8.30991 2.5 8.33333 3.22899 8.33333 5.41667C8.33333 7.60434 8.34256 8.33333 5.41667 8.33333C2.49077 8.33333 2.5 7.60434 2.5 5.41667Z" stroke="white" stroke-width="1.5" stroke-linecap="round" stroke-linejoin="round"/>
<path fill-rule="evenodd" clip-rule="evenodd" d="M11.6641 5.41667C11.6641 3.22899 11.6875 2.5 14.5807 2.5C17.474 2.5 17.4974 3.22899 17.4974 5.41667C17.4974 7.60434 17.5066 8.33333 14.5807 8.33333C11.6548 8.33333 11.6641 7.60434 11.6641 5.41667Z" stroke="white" stroke-width="1.5" stroke-linecap="round" stroke-linejoin="round"/>
<path fill-rule="evenodd" clip-rule="evenodd" d="M2.5 14.5846C2.5 12.397 2.52342 11.668 5.41667 11.668C8.30991 11.668 8.33333 12.397 8.33333 14.5846C8.33333 16.7723 8.34256 17.5013 5.41667 17.5013C2.49077 17.5013 2.5 16.7723 2.5 14.5846Z" stroke="white" stroke-width="1.5" stroke-linecap="round" stroke-linejoin="round"/>
<path fill-rule="evenodd" clip-rule="evenodd" d="M11.6641 14.5846C11.6641 12.397 11.6875 11.668 14.5807 11.668C17.474 11.668 17.4974 12.397 17.4974 14.5846C17.4974 16.7723 17.5066 17.5013 14.5807 17.5013C11.6548 17.5013 11.6641 16.7723 11.6641 14.5846Z" stroke="white" stroke-width="1.5" stroke-linecap="round" stroke-linejoin="round"/>
</g>
</svg>
