<svg width="30" height="30" viewBox="0 0 30 30" fill="none" xmlns="http://www.w3.org/2000/svg">
<g clip-path="url(#clip0_3246_35101)">
<path d="M7.89323 11.487C7.89314 11.5584 7.87877 11.629 7.85092 11.6947C7.82307 11.7605 7.78228 11.82 7.73106 11.8697C7.68079 11.9202 7.621 11.9601 7.55513 11.9872C7.48942 12.0148 7.41884 12.0289 7.34758 12.0286H4.34593C4.2734 12.0297 4.20134 12.0171 4.13353 11.9913C4.0665 11.9645 4.00532 11.9248 3.95349 11.8745C3.87532 11.7988 3.82195 11.7012 3.80038 11.5945C3.77881 11.4878 3.79007 11.3771 3.83269 11.277C3.86105 11.2105 3.90207 11.1502 3.95349 11.0994C4.00549 11.0491 4.06695 11.0097 4.13432 10.9834C4.20169 10.9571 4.27363 10.9444 4.34593 10.9462H7.35163C7.42279 10.9462 7.49325 10.96 7.55919 10.9867C7.69167 11.0419 7.7971 11.1471 7.8527 11.2794C7.87964 11.3453 7.8934 11.4158 7.89323 11.487ZM14.4738 10.947H11.4673C11.3947 10.9448 11.3224 10.9575 11.2548 10.9843C11.1876 11.0099 11.1263 11.0491 11.0749 11.0994C10.9968 11.1752 10.9435 11.2728 10.9219 11.3795C10.9003 11.4861 10.9116 11.5968 10.9541 11.697C10.9818 11.7638 11.0229 11.8242 11.0749 11.8745C11.1265 11.925 11.1877 11.9647 11.2548 11.9913C11.3227 12.017 11.3948 12.0297 11.4673 12.0286H14.473C14.545 12.0297 14.6165 12.017 14.6838 11.9913C14.7513 11.965 14.8129 11.9254 14.8648 11.8748C14.9168 11.8243 14.958 11.7638 14.9862 11.697C15.0138 11.6304 15.0281 11.5591 15.0281 11.487C15.0281 11.4149 15.0138 11.3436 14.9862 11.277C14.9579 11.2105 14.9168 11.1502 14.8654 11.0994C14.8136 11.0491 14.7521 11.0099 14.6846 10.9843C14.6177 10.9575 14.5459 10.9448 14.4738 10.947ZM18.5903 12.0286H21.596C21.6685 12.0297 21.7405 12.0171 21.8084 11.9913C21.8754 11.9645 21.9366 11.9248 21.9884 11.8745C22.0666 11.7988 22.1199 11.7012 22.1415 11.5945C22.1631 11.4878 22.1518 11.3771 22.1092 11.277C22.0809 11.2105 22.0398 11.1502 21.9884 11.0994C21.9364 11.0491 21.8749 11.0097 21.8076 10.9834C21.7402 10.9571 21.6683 10.9444 21.596 10.9462H18.5887C18.5166 10.9442 18.4449 10.9569 18.3778 10.9835C18.3106 11.0091 18.2493 11.0483 18.1978 11.0986C18.1197 11.1744 18.0664 11.272 18.0448 11.3787C18.0233 11.4853 18.0345 11.596 18.077 11.6962C18.1047 11.763 18.1459 11.8234 18.1978 11.8737C18.2495 11.9242 18.3107 11.9639 18.3778 11.9905C18.4452 12.0161 18.5167 12.0287 18.5887 12.0278L18.5903 12.0286ZM7.35163 14.4748H4.34593C4.27332 14.4726 4.20106 14.4853 4.13353 14.5121C4.06609 14.5381 4.00475 14.5779 3.95349 14.6289C3.90174 14.6792 3.86059 14.7394 3.8325 14.8059C3.8044 14.8724 3.78994 14.9438 3.78994 15.016C3.78994 15.0882 3.8044 15.1597 3.8325 15.2262C3.86059 15.2927 3.90174 15.3529 3.95349 15.4032C4.00531 15.4535 4.06649 15.4931 4.13353 15.52C4.20134 15.5457 4.2734 15.5584 4.34593 15.5572H7.35163C7.42417 15.5584 7.49622 15.5457 7.56404 15.52C7.63107 15.4931 7.69226 15.4535 7.74407 15.4032C7.79603 15.353 7.83735 15.2928 7.86557 15.2263C7.89379 15.1598 7.90833 15.0883 7.90833 15.016C7.90833 14.9438 7.89379 14.8723 7.86557 14.8057C7.83735 14.7392 7.79603 14.6791 7.74407 14.6289C7.69282 14.5779 7.63148 14.5381 7.56404 14.5121C7.49651 14.4853 7.42425 14.4726 7.35163 14.4748ZM14.4738 14.4748H11.4673C11.3947 14.4727 11.3224 14.4853 11.2548 14.5121C11.1873 14.5379 11.126 14.5777 11.0749 14.6289C11.0229 14.6789 10.9818 14.7391 10.9541 14.8056C10.9259 14.872 10.9114 14.9435 10.9114 15.0156C10.9114 15.0878 10.9259 15.1592 10.9541 15.2256C10.9818 15.2924 11.0229 15.3528 11.0749 15.4032C11.1265 15.4537 11.1877 15.4934 11.2548 15.52C11.3227 15.5457 11.3948 15.5583 11.4673 15.5572H14.473C14.545 15.5583 14.6165 15.5457 14.6838 15.52C14.7513 15.4937 14.8129 15.4541 14.8649 15.4035C14.9169 15.353 14.9581 15.2925 14.9862 15.2256C15.0288 15.1256 15.04 15.015 15.0185 14.9085C14.9969 14.802 14.9435 14.7045 14.8654 14.6289C14.814 14.5777 14.7524 14.5379 14.6846 14.5121C14.6177 14.4853 14.5459 14.4726 14.4738 14.4748ZM18.5903 15.5564H21.596C21.6685 15.5576 21.7405 15.5449 21.8084 15.5191C21.8754 15.4923 21.9366 15.4527 21.9884 15.4024C22.0404 15.3522 22.0817 15.292 22.1099 15.2255C22.1381 15.159 22.1526 15.0875 22.1526 15.0152C22.1526 14.943 22.1381 14.8715 22.1099 14.8049C22.0817 14.7384 22.0404 14.6783 21.9884 14.6281C21.9371 14.5771 21.8758 14.5373 21.8084 14.5113C21.7408 14.4845 21.6686 14.4718 21.596 14.474H18.5887C18.5166 14.472 18.4449 14.4847 18.3778 14.5113C18.3103 14.5371 18.2489 14.5769 18.1978 14.6281C18.1459 14.6781 18.1047 14.7382 18.077 14.8048C18.0488 14.8712 18.0343 14.9427 18.0343 15.0148C18.0343 15.087 18.0488 15.1584 18.077 15.2248C18.1047 15.2916 18.1459 15.3521 18.1978 15.4024C18.2495 15.4529 18.3107 15.4926 18.3778 15.5191C18.4452 15.5447 18.5167 15.5574 18.5887 15.5564H18.5903ZM7.35163 18.0027H4.34593C4.2025 18.0027 4.06496 18.0596 3.96354 18.1611C3.86212 18.2625 3.80513 18.4 3.80513 18.5435C3.80513 18.6869 3.86212 18.8245 3.96354 18.9259C4.06496 19.0273 4.2025 19.0843 4.34593 19.0843H7.35163C7.49507 19.0843 7.63261 19.0273 7.73403 18.9259C7.83545 18.8245 7.89244 18.6869 7.89244 18.5435C7.89244 18.4 7.83545 18.2625 7.73403 18.1611C7.63261 18.0596 7.49507 18.0027 7.35163 18.0027ZM14.4738 18.0027H11.4673C11.3239 18.0027 11.1863 18.0596 11.0849 18.1611C10.9835 18.2625 10.9265 18.4 10.9265 18.5435C10.9265 18.6869 10.9835 18.8245 11.0849 18.9259C11.1863 19.0273 11.3239 19.0843 11.4673 19.0843H14.473C14.6164 19.0843 14.754 19.0273 14.8554 18.9259C14.9568 18.8245 15.0138 18.6869 15.0138 18.5435C15.0138 18.4 14.9568 18.2625 14.8554 18.1611C14.754 18.0596 14.6164 18.0027 14.473 18.0027H14.4738ZM7.35079 21.5264H4.34593C4.20165 21.5275 4.06373 21.5858 3.96245 21.6886C3.91217 21.7388 3.87224 21.7984 3.84502 21.864C3.8178 21.9296 3.80379 21.9999 3.80379 22.0709C3.80379 22.1419 3.8178 22.2122 3.84502 22.2778C3.87224 22.3434 3.91217 22.403 3.96245 22.4532C4.06373 22.556 4.20165 22.6143 4.34593 22.6154H7.35163C7.49592 22.6143 7.63384 22.556 7.73512 22.4532C7.7854 22.403 7.82533 22.3434 7.85255 22.2778C7.87977 22.2122 7.89378 22.1419 7.89378 22.0709C7.89378 21.9999 7.87977 21.9296 7.85255 21.864C7.82533 21.7984 7.7854 21.7388 7.73512 21.6886C7.68487 21.6376 7.62509 21.5971 7.55914 21.5692C7.49319 21.5414 7.42237 21.5269 7.35079 21.5264ZM14.473 21.5264H11.4673C11.3958 21.5269 11.3252 21.5414 11.2594 21.5693C11.1935 21.5971 11.1339 21.6376 11.0838 21.6886C11.0335 21.7388 10.9936 21.7984 10.9664 21.864C10.9392 21.9296 10.9252 21.9999 10.9252 22.0709C10.9252 22.1419 10.9392 22.2122 10.9664 22.2778C10.9936 22.3434 11.0335 22.403 11.0838 22.4532C11.1339 22.5042 11.1935 22.5447 11.2594 22.5725C11.3252 22.6004 11.3958 22.6149 11.4673 22.6154H14.473C14.6172 22.6142 14.7552 22.5559 14.8565 22.4532C14.9068 22.403 14.9467 22.3434 14.9739 22.2778C15.0011 22.2122 15.0151 22.1419 15.0151 22.0709C15.0151 21.9999 15.0011 21.9296 14.9739 21.864C14.9467 21.7984 14.9068 21.7388 14.8565 21.6886C14.7552 21.5859 14.6172 21.5276 14.473 21.5264ZM30 23.0824C29.9942 24.4719 29.5165 25.8183 28.6454 26.9008C27.7742 27.9833 26.5611 28.7379 25.205 29.0407C23.8489 29.3436 22.4301 29.1768 21.1811 28.5677C19.9322 27.9586 18.9272 26.9434 18.3308 25.6883H2.40244C1.76613 25.6888 1.15568 25.4366 0.705203 24.9872C0.25473 24.5377 0.00107435 23.9279 0 23.2916V5.10671C0.00107435 4.4704 0.25473 3.86054 0.705203 3.41113C1.15568 2.96172 1.76613 2.70952 2.40244 2.70995H4.55027V1.34941C4.5507 1.20583 4.60804 1.06828 4.70972 0.966908C4.8114 0.865533 4.94913 0.808596 5.09271 0.808596H8.04165C8.1128 0.808383 8.1833 0.822217 8.2491 0.8493C8.3149 0.876383 8.37469 0.916185 8.42508 0.966426C8.47547 1.01667 8.51543 1.07636 8.54271 1.14208C8.56999 1.2078 8.58403 1.27826 8.58403 1.34941V2.70995H17.3586V1.34941C17.3586 1.27826 17.3727 1.2078 17.4 1.14208C17.4272 1.07636 17.4672 1.01667 17.5176 0.966426C17.568 0.916185 17.6278 0.876383 17.6936 0.8493C17.7594 0.822217 17.8299 0.808383 17.9011 0.808596H20.8484C20.9921 0.808381 21.13 0.865213 21.2319 0.966611C21.3337 1.06801 21.3912 1.20569 21.3916 1.34941V2.70995H23.5403C24.1766 2.70952 24.7871 2.96172 25.2375 3.41113C25.688 3.86054 25.9416 4.4704 25.9427 5.10671V17.3272C27.1304 17.7509 28.158 18.5316 28.8847 19.5622C29.6113 20.5928 30.0015 21.823 30.0016 23.084L30 23.0824ZM18.4403 5.21131H20.3052V1.89185H18.4403V5.21131ZM5.6343 5.21131H7.49921V1.89185H5.6343V5.21131ZM1.08403 5.10833V7.74753H24.8554V5.10671C24.8544 4.75783 24.7151 4.42357 24.4682 4.17709C24.2213 3.93062 23.8867 3.792 23.5379 3.79157H21.3892V5.75536C21.3892 5.82599 21.3754 5.89595 21.3487 5.96131C21.3216 6.02695 21.2816 6.0865 21.2311 6.13645C21.1808 6.18687 21.121 6.22682 21.0551 6.254C20.9894 6.2816 20.9188 6.29567 20.8475 6.29536H17.8987C17.7547 6.29409 17.617 6.23576 17.516 6.13319C17.4652 6.08351 17.4251 6.0239 17.3984 5.95807C17.3706 5.89295 17.3563 5.8229 17.3562 5.75211V3.79319H8.58245V5.75536C8.58241 5.82599 8.5686 5.89594 8.54187 5.96131C8.51473 6.02693 8.47479 6.08647 8.42434 6.13645C8.32306 6.23922 8.18509 6.29754 8.0408 6.29861H5.09192C4.94833 6.29861 4.81061 6.24168 4.70893 6.14031C4.60725 6.03893 4.54991 5.90137 4.54948 5.75779V3.79319H2.40244C2.05355 3.79362 1.71905 3.93224 1.47212 4.17871C1.22519 4.42519 1.08595 4.75945 1.08488 5.10833H1.08403ZM17.9408 24.6059C17.8133 24.1081 17.7488 23.5963 17.7487 23.0824C17.7444 21.6123 18.2753 20.1909 19.2422 19.0835H18.5878C18.4442 19.0835 18.3064 19.0264 18.2048 18.9248C18.1033 18.8233 18.0462 18.6855 18.0462 18.5418C18.0462 18.3982 18.1033 18.2604 18.2048 18.1589C18.3064 18.0573 18.4442 18.0002 18.5878 18.0002H20.4705C21.7607 17.1435 23.3265 16.8047 24.8554 17.0516V8.82833H1.08403V23.2916C1.08511 23.6403 1.2244 23.9744 1.47138 24.2206C1.71835 24.4668 2.05286 24.6051 2.4016 24.6051L17.9408 24.6059ZM28.9151 23.0824C28.912 21.844 28.4485 20.651 27.6149 19.7352C26.7812 18.8194 25.6369 18.2462 24.4042 18.127C23.1716 18.0078 21.9386 18.3511 20.9449 19.0902C19.9513 19.8293 19.2678 20.9114 19.0274 22.1262C18.787 23.3411 19.0068 24.6019 19.644 25.6637C20.2813 26.7256 21.2906 27.5126 22.4758 27.8719C23.6609 28.2311 24.9373 28.137 26.0569 27.6077C27.1766 27.0785 28.0595 26.1519 28.5341 25.0081C28.7869 24.3976 28.9167 23.7432 28.916 23.0824H28.9151ZM26.4365 24.8743C26.5345 24.9767 26.5885 25.1134 26.5868 25.2552C26.5852 25.3969 26.528 25.5323 26.4276 25.6324C26.3272 25.7325 26.1916 25.7892 26.0499 25.7904C25.9081 25.7916 25.7715 25.7372 25.6695 25.6389L24.2911 24.2654C23.9888 24.3694 23.6583 24.3542 23.3668 24.223C23.0753 24.0918 22.8448 23.8544 22.7223 23.5591C22.5998 23.2638 22.5945 22.933 22.7075 22.634C22.8204 22.3349 23.0431 22.0902 23.3303 21.9497V18.8978C23.3357 18.7577 23.3952 18.6251 23.4962 18.5279C23.5973 18.4306 23.7321 18.3763 23.8723 18.3763C24.0125 18.3763 24.1473 18.4306 24.2484 18.5279C24.3494 18.6251 24.4089 18.7577 24.4143 18.8978V21.9497C24.5433 22.0107 24.6612 22.0929 24.763 22.1929C24.9307 22.3603 25.0474 22.5718 25.0995 22.8029C25.1516 23.0341 25.137 23.2752 25.0573 23.4983L26.4365 24.8743ZM23.8735 23.2527C23.9079 23.2526 23.9416 23.2421 23.97 23.2227C23.9993 23.203 24.0217 23.1746 24.0341 23.1416C24.047 23.11 24.0503 23.0753 24.0438 23.0418C24.0376 23.0078 24.0212 22.9764 23.9968 22.9519C23.9761 22.9321 23.9511 22.9174 23.9238 22.9089C23.8974 22.9012 23.8697 22.8998 23.8427 22.9048C23.8146 22.9103 23.7884 22.9228 23.7665 22.9413C23.7441 22.9591 23.7265 22.9822 23.7154 23.0086C23.7049 23.0343 23.7007 23.0621 23.7033 23.0897C23.7062 23.1187 23.7162 23.1465 23.7324 23.1708C23.7482 23.1946 23.7696 23.2142 23.7948 23.2276C23.82 23.2411 23.8482 23.248 23.8768 23.2478L23.8735 23.2527Z" fill="#163F75"/>
</g>
<defs>
<clipPath id="clip0_3246_35101">
<rect width="30" height="28.3784" fill="white" transform="translate(0 0.810547)"/>
</clipPath>
</defs>
</svg>
