<svg width="20" height="20" viewBox="0 0 20 20" fill="none" xmlns="http://www.w3.org/2000/svg">
<g opacity="0.8">
<path fill-rule="evenodd" clip-rule="evenodd" d="M17.3411 6.35305L16.8224 5.45298C16.3836 4.69138 15.4112 4.42864 14.6485 4.86564V4.86564C14.2855 5.07949 13.8523 5.14017 13.4445 5.03428C13.0367 4.92839 12.6877 4.66464 12.4746 4.30118C12.3375 4.07016 12.2638 3.80704 12.261 3.53841V3.53841C12.2734 3.10773 12.1109 2.69038 11.8106 2.38143C11.5103 2.07249 11.0977 1.89826 10.6668 1.89844H9.62182C9.19971 1.89843 8.795 2.06664 8.49724 2.36583C8.19948 2.66502 8.03322 3.07053 8.03525 3.49264V3.49264C8.02274 4.36415 7.31264 5.06405 6.44104 5.06396C6.17241 5.06117 5.90929 4.98749 5.67827 4.85038V4.85038C4.91562 4.41339 3.94317 4.67612 3.50435 5.43772L2.94753 6.35305C2.50925 7.1137 2.7684 8.08555 3.52724 8.52697V8.52697C4.02049 8.81174 4.32435 9.33803 4.32435 9.90759C4.32435 10.4771 4.02049 11.0034 3.52724 11.2882V11.2882C2.76937 11.7267 2.50993 12.6961 2.94753 13.4545V13.4545L3.47384 14.3622C3.67944 14.7332 4.02441 15.007 4.4324 15.1229C4.84039 15.2389 5.27777 15.1875 5.64776 14.9801V14.9801C6.01147 14.7678 6.4449 14.7097 6.85169 14.8185C7.25848 14.9274 7.60493 15.1942 7.81404 15.5598C7.95115 15.7908 8.02483 16.0539 8.02762 16.3225V16.3225C8.02762 17.203 8.74137 17.9167 9.62182 17.9167H10.6668C11.5443 17.9168 12.2568 17.2076 12.261 16.3302V16.3302C12.259 15.9067 12.4263 15.5001 12.7257 15.2006C13.0251 14.9012 13.4318 14.7339 13.8552 14.736C14.1232 14.7431 14.3853 14.8165 14.618 14.9495V14.9495C15.3787 15.3878 16.3505 15.1287 16.7919 14.3698V14.3698L17.3411 13.4545C17.5537 13.0896 17.612 12.655 17.5032 12.247C17.3944 11.839 17.1274 11.4912 16.7614 11.2806V11.2806C16.3954 11.07 16.1284 10.7222 16.0196 10.3142C15.9108 9.90613 15.9691 9.47156 16.1817 9.10668C16.3199 8.86532 16.5201 8.66521 16.7614 8.52697V8.52697C17.5157 8.08579 17.7742 7.11962 17.3411 6.36068V6.36068V6.35305Z" stroke="white" stroke-width="1.5" stroke-linecap="round" stroke-linejoin="round"/>
<ellipse cx="10.1499" cy="9.90773" rx="2.1968" ry="2.1968" stroke="white" stroke-width="1.5" stroke-linecap="round" stroke-linejoin="round"/>
</g>
</svg>
