<svg width="20" height="20" viewBox="0 0 20 20" fill="none" xmlns="http://www.w3.org/2000/svg">
<path fill-rule="evenodd" clip-rule="evenodd" d="M2 5.11105C2 2.77757 2.0248 2 5.11104 2C8.19729 2 8.22209 2.77757 8.22209 5.11105C8.22209 7.44453 8.23169 8.22129 5.11104 8.22129C1.9904 8.22129 2 7.44373 2 5.11105Z" stroke="white" stroke-width="1.5" stroke-linecap="round" stroke-linejoin="round"/>
<path fill-rule="evenodd" clip-rule="evenodd" d="M11.7773 5.11105C11.7773 2.77757 11.8021 2 14.8884 2C17.9746 2 17.9994 2.77757 17.9994 5.11105C17.9994 7.44453 18.009 8.22129 14.8884 8.22129C11.7677 8.22129 11.7773 7.44373 11.7773 5.11105Z" stroke="white" stroke-width="1.5" stroke-linecap="round" stroke-linejoin="round"/>
<path fill-rule="evenodd" clip-rule="evenodd" d="M2 14.8884C2 12.5549 2.0248 11.7773 5.11104 11.7773C8.19729 11.7773 8.22209 12.5549 8.22209 14.8884C8.22209 17.2219 8.23169 17.9986 5.11104 17.9986C1.9904 17.9986 2 17.2211 2 14.8884Z" stroke="white" stroke-width="1.5" stroke-linecap="round" stroke-linejoin="round"/>
<path fill-rule="evenodd" clip-rule="evenodd" d="M11.7773 14.8884C11.7773 12.5549 11.8021 11.7773 14.8884 11.7773C17.9746 11.7773 17.9994 12.5549 17.9994 14.8884C17.9994 17.2219 18.009 17.9986 14.8884 17.9986C11.7677 17.9986 11.7773 17.2211 11.7773 14.8884Z" stroke="white" stroke-width="1.5" stroke-linecap="round" stroke-linejoin="round"/>
</svg>
