<svg width="20" height="20" viewBox="0 0 20 20" fill="none" xmlns="http://www.w3.org/2000/svg">
<path d="M17.7075 18.0009V16.4726C17.7075 14.7845 15.9495 13.416 13.7776 13.416H5.92994C3.75799 13.416 2 14.7845 2 16.4726V18.0009" stroke="white" stroke-width="1.5" stroke-miterlimit="10" stroke-linecap="round" stroke-linejoin="round"/>
<path d="M9.85371 2.00427C10.9948 1.9535 12.1095 2.35692 12.9537 3.12623C13.798 3.89553 14.303 4.96802 14.3583 6.10888C14.303 7.24974 13.798 8.32223 12.9537 9.09153C12.1095 9.86083 10.9948 10.2643 9.85371 10.2135C8.71264 10.2643 7.59794 9.86083 6.75367 9.09153C5.90941 8.32223 5.40436 7.24974 5.34912 6.10888C5.40436 4.96802 5.90941 3.89553 6.75367 3.12623C7.59794 2.35692 8.71264 1.9535 9.85371 2.00427Z" stroke="white" stroke-width="1.5" stroke-linecap="round"/>
</svg>
