<svg width="20" height="20" viewBox="0 0 20 20" fill="none" xmlns="http://www.w3.org/2000/svg">
<path d="M9.95458 2C8.54259 2.03727 7.20318 2.63372 6.23082 3.65823C5.25845 4.68275 4.73273 6.05149 4.76921 7.4635V9.18583C4.74542 9.83783 4.57804 10.4766 4.279 11.0564L3.29051 12.7956C3.14099 13.0242 3.04606 13.284 3.01305 13.5551C2.98004 13.8262 3.00985 14.1013 3.10016 14.359C3.19047 14.6168 3.33887 14.8503 3.53386 15.0415C3.72886 15.2327 3.96524 15.3765 4.2247 15.4617C7.93605 16.766 11.9812 16.766 15.6925 15.4617C15.943 15.3648 16.1694 15.2147 16.3563 15.0217C16.5431 14.8288 16.6858 14.5976 16.7746 14.3442C16.8635 14.0907 16.8962 13.821 16.8707 13.5537C16.8451 13.2863 16.7619 13.0277 16.6267 12.7956L15.6382 11.0564C15.3402 10.4762 15.1729 9.83767 15.148 9.18583V7.4635C15.1767 6.0523 14.6473 4.68678 13.6748 3.66374C12.7023 2.64071 11.3654 2.04283 9.95458 2Z" stroke="white" stroke-width="1.5" stroke-miterlimit="10" stroke-linecap="round"/>
<path d="M12.8678 15.9609C12.8678 17.0801 11.5469 17.9973 9.93977 17.9973C9.20649 18.0085 8.4867 17.7997 7.87326 17.3978C7.62401 17.246 7.41538 17.0359 7.2653 16.7856C7.11523 16.5353 7.02821 16.2523 7.01172 15.9609" stroke="white" stroke-width="1.5" stroke-miterlimit="10"/>
</svg>
