<svg width="20" height="20" viewBox="0 0 20 20" fill="none" xmlns="http://www.w3.org/2000/svg">
<path d="M9.99991 17.9998C14.4187 17.9998 18.0008 14.4177 18.0008 9.99893C18.0008 5.58017 14.4187 1.99805 9.99991 1.99805C5.58114 1.99805 1.99902 5.58017 1.99902 9.99893C1.99902 14.4177 5.58114 17.9998 9.99991 17.9998Z" stroke="white" stroke-width="1.7602" stroke-miterlimit="10" stroke-linecap="round" stroke-linejoin="round"/>
<path d="M10.009 4.64119C9.30844 4.61606 8.61395 4.77961 7.99818 5.11473C7.38241 5.44984 6.86797 5.94423 6.50865 6.5462C6.43648 6.65315 6.40726 6.78337 6.42684 6.9109C6.44641 7.03843 6.51334 7.1539 6.61426 7.23427L7.49436 7.91915C7.54438 7.95807 7.60161 7.98669 7.66274 8.00338C7.72388 8.02007 7.78771 8.02449 7.85057 8.01638C7.91342 8.00827 7.97404 7.9878 8.02894 7.95614C8.08384 7.92449 8.13193 7.88227 8.17044 7.83194C8.68009 7.17507 9.05774 6.79663 9.85062 6.79663C10.4763 6.79663 11.25 7.21107 11.25 7.83674C11.25 8.30879 10.8715 8.55122 10.2531 8.90726C9.53379 9.32251 8.58088 9.84176 8.58088 11.1339V11.3387C8.57982 11.4038 8.59159 11.4684 8.6155 11.5289C8.63942 11.5894 8.67502 11.6446 8.72026 11.6913C8.76551 11.738 8.81952 11.7754 8.87921 11.8012C8.9389 11.8271 9.0031 11.8409 9.06814 11.842H10.5419C10.6069 11.841 10.6712 11.8273 10.7309 11.8015C10.7906 11.7758 10.8447 11.7385 10.89 11.6919C10.9353 11.6452 10.971 11.5901 10.995 11.5296C11.019 11.4692 11.0309 11.4046 11.03 11.3395V11.2179C11.03 10.321 13.5782 10.2834 13.5782 7.85754C13.5782 6.02774 11.7356 4.64119 10.009 4.64119ZM9.80502 12.4581C9.51646 12.4498 9.232 12.5278 8.98803 12.6821C8.74406 12.8364 8.55168 13.06 8.4355 13.3243C8.31933 13.5885 8.28465 13.8814 8.33589 14.1655C8.38714 14.4496 8.52199 14.712 8.72318 14.919C8.92437 15.126 9.18275 15.2683 9.46526 15.3276C9.74777 15.3869 10.0416 15.3606 10.309 15.2521C10.5765 15.1435 10.8055 14.9575 10.9667 14.7181C11.1279 14.4786 11.214 14.1965 11.214 13.9078C11.2189 13.5289 11.0733 13.1634 10.8092 12.8917C10.5451 12.6199 10.184 12.464 9.80502 12.4581Z" fill="white"/>
</svg>
