<svg width="24" height="24" viewBox="0 0 24 24" fill="none" xmlns="http://www.w3.org/2000/svg">
<path d="M0 5C0 2.23858 2.23858 0 5 0H19C21.7614 0 24 2.23858 24 5V19C24 21.7614 21.7614 24 19 24H5C2.23858 24 0 21.7614 0 19V5Z" fill="white"/>
<path d="M17.1694 2.00061L10.9258 2C10.9258 2 10.9306 2.89647 10.9355 4.05488H17.0279C17.1001 2.89345 17.1694 2.00061 17.1694 2.00061Z" fill="#CCCCD0"/>
<path d="M17.607 13.3638C18.6218 11.6301 17.4029 10.1232 17.0209 9.33594C16.0645 9.616 14.7703 10.2944 14.137 11.9622C13.6518 13.2407 14.0722 14.9014 14.4397 15.9343C15.514 15.2523 16.7029 14.9093 17.607 13.3638Z" fill="#CCCCD0"/>
<path d="M16.9332 5.78746C16.9482 5.44875 16.9654 5.10967 16.9835 4.78175C16.9979 4.53208 17.0122 4.28665 17.0266 4.05469H11.1374C11.1383 4.28664 11.1394 4.53208 11.1406 4.78175C11.142 5.11152 11.1429 5.44929 11.1444 5.78746C11.149 7.08826 11.1538 8.35896 11.1538 8.9173C11.1538 10.6886 9.79798 13.1782 7.85549 15.4326C7.32753 16.0454 6.87283 16.771 6.54688 17.5125C7.13951 18.7477 8.39843 20.2173 11.0371 20.5946C11.6797 19.9345 12.3053 19.0389 12.845 17.8669C13.307 16.8658 13.8944 16.3306 14.5242 15.9185C14.1689 14.8911 13.7625 13.2393 14.2315 11.9677C14.8437 10.3089 16.0947 9.63413 17.0192 9.35558C17.0019 9.32069 16.9844 9.28457 16.9707 9.25238C16.833 8.90883 16.8614 7.36227 16.9332 5.78746Z" fill="#1D1D26"/>
<path d="M6.54729 17.4961C5.59453 19.5967 5.71285 21.8212 8.30089 21.9954C9.13627 22.0514 10.184 21.6022 11.1924 20.5948C8.46272 20.2155 7.16037 18.738 6.54729 17.4961Z" fill="#CCCCD0"/>
<path d="M13.0506 15.8373C13.0506 16.288 12.6865 16.654 12.234 16.654C11.7815 16.654 11.418 16.288 11.418 15.8373C11.418 15.3851 11.7815 15.0195 12.234 15.0195C12.6865 15.0195 13.0506 15.3851 13.0506 15.8373Z" fill="#1D1D26"/>
<path d="M9.41422 17.5137C9.41422 17.9659 9.05038 18.3322 8.5982 18.3322C8.1454 18.3322 7.78125 17.9659 7.78125 17.5137C7.78125 17.0616 8.1454 16.6953 8.5982 16.6953C9.05038 16.6953 9.41422 17.0615 9.41422 17.5137Z" fill="#1D1D26"/>
<path d="M13.398 10.7238C13.398 11.176 13.0344 11.5413 12.5823 11.5413C12.1295 11.5413 11.7656 11.176 11.7656 10.7238C11.7656 10.2726 12.1295 9.90625 12.5823 9.90625C13.0344 9.90625 13.398 10.2726 13.398 10.7238Z" fill="#1D1D26"/>
<path d="M15.758 7.92779C15.758 8.37936 15.3938 8.74475 14.9416 8.74475C14.4891 8.74475 14.125 8.37936 14.125 7.92779C14.125 7.47569 14.4891 7.10938 14.9416 7.10938C15.3938 7.10938 15.758 7.47569 15.758 7.92779Z" fill="#1D1D26"/>
<path d="M13.398 5.40741C13.398 5.85952 13.0344 6.22583 12.5823 6.22583C12.1295 6.22583 11.7656 5.85952 11.7656 5.40741C11.7656 4.95608 12.1295 4.58984 12.5823 4.58984C13.0344 4.58984 13.398 4.95608 13.398 5.40741Z" fill="#1D1D26"/>
</svg>
