<svg width="24" height="24" viewBox="0 0 24 24" fill="none" xmlns="http://www.w3.org/2000/svg">
<path d="M0 5C0 2.23858 2.23858 0 5 0H19C21.7614 0 24 2.23858 24 5V19C24 21.7614 21.7614 24 19 24H5C2.23858 24 0 21.7614 0 19V5Z" fill="white"/>
<path d="M9.2 22.0018C8.72919 15.7665 8.3789 10.0938 8.3789 10.0938L4 13.0191C4 13.0191 4.75512 14.9284 7.40504 22.0018H9.2Z" fill="#313032"/>
<path d="M19.5994 6.17587C19.5994 5.12529 18.8698 3.95292 18.8698 3.95292L14.2655 3.60499L14.2696 3.56797L14.023 3.58613L12.8884 3.5L12.8932 3.66757L7.83549 4.03232C7.83549 4.03232 7.19141 5.1024 7.19141 6.15365C7.19141 6.71359 7.37465 14.682 7.54578 21.9996H11.9277C12.4168 15.6659 12.9578 9.20437 13.1431 8.9197L13.6349 8.91768C13.8081 8.91768 14.3612 15.5232 14.8625 21.9996H19.245C19.4168 14.688 19.5994 6.73514 19.5994 6.17587Z" fill="#414042"/>
<path d="M13.3524 2H7.83594V4.02252H18.8702V2H13.3524Z" fill="#313032"/>
<path d="M18.8702 2.41016H7.83594V3.88091H18.8702V2.41016Z" fill="#754C29"/>
<path d="M13.8327 8.93738H13.2344V8.63014H13.8327C13.9135 8.63014 13.9809 8.5648 13.9809 8.48328V3.91406H14.2861V8.48328C14.2861 8.73391 14.0819 8.93738 13.8327 8.93738Z" fill="#313032"/>
<path d="M9.00751 2.28516C9.00751 2.28516 8.32031 2.81 8.32031 3.01077C8.32031 3.21221 9.00751 3.73839 9.00751 3.73839H18.8709V2.28516H9.00751Z" fill="#8B5E3C"/>
<path d="M10.7921 4.22803H9.89062V2H10.7921V4.22803Z" fill="#414042"/>
<path d="M16.1797 4.22803H17.0818V2H16.1797V4.22803Z" fill="#414042"/>
<path d="M13.1533 2.5005C13.0704 2.5005 13.0064 2.5672 13.0064 2.64872V3.49963C13.0064 3.58115 13.0704 3.64718 13.1533 3.64718H14.7204C14.8012 3.64718 14.8673 3.58115 14.8673 3.49963V2.64872C14.8673 2.5672 14.8013 2.5005 14.7204 2.5005H13.1533ZM14.7204 3.95306H13.1533C12.9027 3.95306 12.6992 3.75027 12.6992 3.49966V2.64874C12.6992 2.39879 12.9027 2.19531 13.1533 2.19531H14.7204C14.9697 2.19531 15.1725 2.39879 15.1725 2.64874V3.49966C15.1725 3.75027 14.9697 3.95306 14.7204 3.95306Z" fill="#917054"/>
<path d="M7.50917 8.92468L7.48828 7.94576C7.48962 7.94576 8.1007 8.25569 8.42139 6.65422C8.62148 5.64635 8.39646 4.78734 8.1209 4.00986L8.40994 3.91016C8.69829 4.72805 8.93745 5.63356 8.72119 6.71421C8.36614 8.48813 7.51455 8.92468 7.50917 8.92468Z" fill="#313032"/>
<path d="M19.5066 8.57841C19.3557 8.57841 18.6018 8.48812 18.2474 6.71421C18.0319 5.63424 18.2697 4.72875 18.5587 3.91016L18.8457 4.00988C18.5729 4.78871 18.3445 5.64703 18.5459 6.65425C18.8679 8.25502 19.5653 7.62643 19.5727 7.62643L19.5235 8.57839C19.5194 8.57839 19.5113 8.57841 19.5066 8.57841Z" fill="#313032"/>
</svg>
