<svg width="24" height="24" viewBox="0 0 24 24" fill="none" xmlns="http://www.w3.org/2000/svg">
<path d="M0 5C0 2.23858 2.23858 0 5 0H19C21.7614 0 24 2.23858 24 5V19C24 21.7614 21.7614 24 19 24H5C2.23858 24 0 21.7614 0 19V5Z" fill="white"/>
<path d="M20.7767 5.6786L17.8984 4.21875V8.5575L20.7767 5.6786Z" fill="#C2DFE8"/>
<path d="M17.8984 8.55858V9.58699L20.7021 10.4358L22.0011 6.30117L20.7767 5.67969L17.8984 8.55858Z" fill="#C2DFE8"/>
<path d="M17.9488 11.6363V8.55859L14.8711 11.6363H17.9488Z" fill="#FBB040"/>
<path d="M6.10156 20.5769V20.6113H17.8963V18.5352H8.10568L6.10156 20.5769Z" fill="#FBB040"/>
<path d="M12.582 13.9367H17.9585V11.6367H14.8808L12.582 13.9367Z" fill="#B3D7E2"/>
<path d="M12.5923 13.9336L10.293 16.2324H17.9688V13.9336H12.5923Z" fill="#FBB040"/>
<path d="M8.01172 18.5337H17.987V16.2344H10.3111L8.01172 18.5337Z" fill="#B3D7E2"/>
<path d="M17.8963 8.55764V4.21888L14.8795 3.34673L14.5957 3.36188C14.598 3.40386 14.3016 3.26044 14.3016 3.3024C14.3016 4.59727 13.2699 4.52499 11.999 4.52499C10.7281 4.52499 9.69644 4.59727 9.69644 3.3024C9.69644 3.26626 9.70045 3.23303 9.70158 3.19922L8.74771 3.46857L6.10156 4.2189V11.6353H14.8755L17.8963 8.55764Z" fill="#FCC066"/>
<path d="M6.05078 18.5352V20.5769L8.09271 18.5352H6.05078Z" fill="#FCC066"/>
<path d="M10.3882 16.2344H6.04688V18.5337H8.0888L10.3882 16.2344Z" fill="#C2DFE8"/>
<path d="M14.9629 11.6367H6.02344V13.9367H12.6641L14.9629 11.6367Z" fill="#C2DFE8"/>
<path d="M12.6758 13.9336H6.03516V16.2324H10.3765L12.6758 13.9336Z" fill="#FCC066"/>
<path d="M6.10267 4.21875L2 6.3001L3.29922 10.4348L6.10267 9.58591V4.21875Z" fill="#C2DFE8"/>
<path d="M9.67327 3.19922C8.81625 5.03687 12.014 4.52499 12.014 4.52499L12.0135 3.19922H9.67327Z" fill="#B3D7E2"/>
<path d="M14.3246 3.19922C15.1816 5.03687 11.985 4.52499 11.985 4.52499L11.9844 3.19922H14.3246Z" fill="#B3D7E2"/>
<path d="M12.4504 9.77805H11.5508V4.52344H12.4504V9.77805Z" fill="#B3D7E2"/>
<path d="M11.9805 4.52499L13.4578 6.33405C13.4578 6.33405 15.0628 5.31495 14.9153 3.34673L14.3201 3.19922C14.3201 3.19922 13.8531 4.52499 11.9805 4.52499Z" fill="#C2DFE8"/>
<path d="M12.0193 4.52499L10.5414 6.33405C10.5414 6.33405 8.93579 5.31495 9.08387 3.34673L9.67912 3.19922C9.67912 3.19922 10.1467 4.52499 12.0193 4.52499Z" fill="#C2DFE8"/>
<path d="M12.2928 8.76355C12.2928 8.92273 12.1616 9.05215 12.0019 9.05215C11.8421 9.05215 11.7109 8.92273 11.7109 8.76355C11.7109 8.60325 11.8421 8.47266 12.0019 8.47266C12.1616 8.47266 12.2928 8.60325 12.2928 8.76355Z" fill="#FBB040"/>
<path d="M12.2742 6.31378C12.2742 6.47351 12.1454 6.60294 11.9857 6.60294C11.8253 6.60294 11.6953 6.47351 11.6953 6.31378C11.6953 6.15345 11.8253 6.02344 11.9857 6.02344C12.1454 6.02344 12.2742 6.15345 12.2742 6.31378Z" fill="#FBB040"/>
</svg>
