<svg width="20" height="20" viewBox="0 0 20 20" fill="none" xmlns="http://www.w3.org/2000/svg">
<rect x="6" y="6" width="8" height="8" fill="white"/>
<path d="M9.99935 1.66602C5.39935 1.66602 1.66602 5.39935 1.66602 9.99935C1.66602 14.5993 5.39935 18.3327 9.99935 18.3327C14.5993 18.3327 18.3327 14.5993 18.3327 9.99935C18.3327 5.39935 14.5993 1.66602 9.99935 1.66602ZM12.216 11.441L11.1493 12.0577L10.0827 12.6743C8.70768 13.466 7.58268 12.816 7.58268 11.2327V9.99935V8.76602C7.58268 7.17435 8.70768 6.53268 10.0827 7.32435L11.1493 7.94102L12.216 8.55768C13.591 9.34935 13.591 10.6493 12.216 11.441Z" fill="#163F75"/>
</svg>
