<svg width="30" height="30" viewBox="0 0 30 30" fill="none" xmlns="http://www.w3.org/2000/svg">
<path d="M27.5171 12.3216C27.5294 12.2798 27.5331 12.2359 27.5279 12.1927C27.5227 12.1494 27.5089 12.1076 27.4871 12.0699L23.5904 5.3199C23.5619 5.27104 23.521 5.23054 23.4719 5.20247C23.4227 5.1744 23.3671 5.15976 23.3105 5.16H18.8804V1.8228C18.8804 1.73719 18.8464 1.65508 18.7859 1.59455C18.7253 1.53401 18.6432 1.5 18.5576 1.5H11.4434C11.3578 1.5 11.2757 1.53401 11.2152 1.59455C11.1546 1.65508 11.1206 1.73719 11.1206 1.8228V5.16H6.69051C6.63383 5.15996 6.57814 5.17486 6.52906 5.20319C6.47997 5.23153 6.43922 5.2723 6.41091 5.3214L2.51391 12.0699C2.47978 12.129 2.46539 12.1974 2.47281 12.2652C2.47134 12.2774 2.47064 12.2898 2.47071 12.3021V16.2735C2.47071 16.359 2.50468 16.4411 2.56517 16.5015C2.62565 16.562 2.70767 16.596 2.79321 16.596H3.44061V28.176C3.44045 28.2185 3.44868 28.2606 3.46483 28.2999C3.48099 28.3392 3.50474 28.3749 3.53473 28.405C3.56472 28.4351 3.60036 28.459 3.6396 28.4753C3.67884 28.4916 3.72092 28.5 3.76341 28.5H26.2376C26.3232 28.5 26.4053 28.466 26.4659 28.4055C26.5264 28.3449 26.5604 28.2628 26.5604 28.1772V16.596H27.2078C27.2933 16.596 27.3754 16.562 27.4359 16.5015C27.4963 16.4411 27.5303 16.359 27.5303 16.2735V12.4131C27.5302 12.3821 27.5258 12.3513 27.5171 12.3216ZM18.8804 8.7138H20.0147L20.8076 10.0869H18.8804V8.7138ZM18.2348 2.1453V10.0869H11.7662V2.1453H18.2348ZM11.1206 10.0869H9.19341L9.98631 8.7138H11.1206V10.0869ZM6.87651 5.8044H11.1206V8.0682H9.80061C9.74394 8.06822 9.68828 8.08315 9.6392 8.11148C9.59013 8.1398 9.54937 8.18054 9.52101 8.2296L8.35551 10.2483C8.32717 10.2974 8.31226 10.353 8.31226 10.4097C8.31226 10.4664 8.32718 10.522 8.35552 10.5711C8.38386 10.6202 8.42461 10.6609 8.47369 10.6893C8.52277 10.7176 8.57844 10.7325 8.63511 10.7325H21.3668C21.4235 10.7325 21.4791 10.7175 21.5281 10.6892C21.5772 10.6608 21.6179 10.6201 21.6462 10.571C21.6745 10.5219 21.6894 10.4663 21.6894 10.4096C21.6893 10.353 21.6744 10.2974 21.6461 10.2483L20.4806 8.2296C20.4522 8.18054 20.4115 8.1398 20.3624 8.11148C20.3133 8.08315 20.2577 8.06822 20.201 8.0682H18.881V5.8044H23.1245L26.6489 11.91H3.35211L6.87651 5.8044ZM25.9148 27.8544H4.08621V16.596H25.9148V27.8544ZM3.11481 15.9504V12.5538H26.8838V15.9507L3.11481 15.9504ZM6.18861 26.0748H23.8124C23.898 26.0748 23.9801 26.0408 24.0407 25.9803C24.1012 25.9197 24.1352 25.8376 24.1352 25.752V18.6987C24.1352 18.6131 24.1012 18.531 24.0407 18.4704C23.9801 18.4099 23.898 18.3759 23.8124 18.3759H6.18861C6.103 18.3759 6.02089 18.4099 5.96035 18.4704C5.89982 18.531 5.86581 18.6131 5.86581 18.6987V25.752C5.86581 25.8376 5.89982 25.9197 5.96035 25.9803C6.02089 26.0408 6.103 26.0748 6.18861 26.0748ZM6.51051 19.02H23.4905V25.4295H6.51051V19.02ZM12.944 5.9793C12.8865 5.91819 12.855 5.83708 12.8563 5.75317C12.8576 5.66925 12.8915 5.58913 12.9508 5.52979C13.0101 5.47044 13.0903 5.43655 13.1742 5.43528C13.2581 5.43401 13.3392 5.46548 13.4003 5.523L14.6345 6.7572L16.6007 4.7907C16.6618 4.73318 16.7429 4.70171 16.8268 4.70298C16.9108 4.70425 16.9909 4.73814 17.0502 4.79749C17.1096 4.85683 17.1435 4.93695 17.1447 5.02087C17.146 5.10478 17.1145 5.18589 17.057 5.247L14.8625 7.4418C14.802 7.50227 14.7199 7.53624 14.6344 7.53624C14.5488 7.53624 14.4667 7.50227 14.4062 7.4418L12.944 5.9793Z" fill="#163F75"/>
</svg>
