<svg width="16" height="16" viewBox="0 0 16 16" fill="none" xmlns="http://www.w3.org/2000/svg">
<path d="M8.00363 16C9.85459 15.9991 11.648 15.3565 13.0782 14.1816C14.5084 13.0066 15.487 11.3721 15.8471 9.55649C16.2072 7.74091 15.9267 5.85662 15.0532 4.22473C14.1797 2.59284 12.7674 1.31433 11.0569 0.60706C9.34636 -0.100205 7.44354 -0.192457 5.67264 0.346025C3.90174 0.884507 2.37236 2.0204 1.34511 3.56014C0.317865 5.09988 -0.143681 6.94819 0.0391248 8.7901C0.221931 10.632 1.03778 12.3535 2.34764 13.6613C3.0899 14.4045 3.97167 14.9936 4.9423 15.395C5.91293 15.7963 6.9533 16.0019 8.00363 16ZM12.537 12.5333C11.4353 13.6349 9.96978 14.2968 8.41502 14.3949C6.86026 14.4931 5.32307 14.0209 4.09164 13.0667L13.0703 4.08C14.0267 5.31203 14.5003 6.85091 14.4021 8.40751C14.3039 9.96411 13.6406 11.4313 12.537 12.5333ZM3.4703 3.46667C4.57192 2.36514 6.03748 1.70323 7.59224 1.60505C9.147 1.50686 10.6842 1.97914 11.9156 2.93333L2.9503 11.9227C1.99144 10.692 1.51511 9.15347 1.61087 7.5963C1.70663 6.03913 2.36787 4.57057 3.4703 3.46667Z" fill="#DB161B"/>
</svg>
