<svg width="16" height="18" viewBox="0 0 16 18" fill="none" xmlns="http://www.w3.org/2000/svg">
<g clip-path="url(#clip0_3411_40355)">
<path d="M1.14399 0H10.854L16.0012 5.04654V16.8743C16.0012 17.1727 15.8808 17.4588 15.6665 17.6698C15.4522 17.8807 15.1615 17.9993 14.8584 17.9993H1.14476C0.841666 17.9993 0.55099 17.8807 0.336673 17.6698C0.122356 17.4588 0.00195313 17.1727 0.00195313 16.8743V1.12495C0.00195306 0.826727 0.12225 0.540704 0.336403 0.329756C0.550555 0.118808 0.841036 0.000198818 1.14399 0Z" fill="#84BD5A"/>
<path opacity="0.1" d="M15.984 5.06276H12.0002C11.6971 5.06276 11.4065 4.94424 11.1921 4.73327C10.9778 4.5223 10.8574 4.23616 10.8574 3.9378V0.0117188L15.984 5.06276Z" fill="black"/>
<path d="M4.37932 9.771L5.39565 8.51706C5.70039 8.12558 6.29008 8.6258 5.95714 9.00004C5.60745 9.40877 5.2387 9.852 4.89053 10.3057L6.08209 11.7667C6.11006 11.8078 6.12952 11.8539 6.13937 11.9024C6.14922 11.951 6.14927 12.0009 6.1395 12.0495C6.12974 12.098 6.11036 12.1442 6.08247 12.1853C6.05458 12.2265 6.01872 12.2619 5.97695 12.2894C5.93518 12.3169 5.88831 12.3361 5.83902 12.3458C5.78973 12.3555 5.73898 12.3555 5.68967 12.3459C5.64036 12.3363 5.59345 12.3172 5.55163 12.2898C5.50981 12.2623 5.4739 12.227 5.44593 12.1859L4.37017 10.8285L3.3127 12.2152C3.01481 12.6344 2.35427 12.1634 2.6872 11.7719L3.86124 10.305C3.49326 9.85051 3.13671 9.40501 2.78015 8.99928C2.7403 8.96282 2.70883 8.91838 2.68789 8.86895C2.66694 8.81952 2.657 8.76623 2.65872 8.7127C2.66045 8.65916 2.67381 8.60662 2.69789 8.55859C2.72198 8.51056 2.75624 8.46818 2.79837 8.43428C2.84049 8.40038 2.88951 8.37575 2.94212 8.36207C2.99472 8.34838 3.0497 8.34593 3.10334 8.35491C3.15698 8.3639 3.20804 8.38409 3.25309 8.41412C3.29814 8.44416 3.33613 8.48335 3.36451 8.52905L4.37932 9.771Z" fill="white"/>
<path d="M6.80078 8.73577C6.80278 8.64135 6.84256 8.55152 6.91146 8.4858C6.98037 8.42008 7.07283 8.38378 7.16877 8.38479C7.26133 8.38771 7.34912 8.42598 7.41353 8.49149C7.47795 8.55699 7.51394 8.6446 7.51389 8.73577V11.6172H9.10315C9.15812 11.6087 9.21429 11.6121 9.2678 11.6271C9.32131 11.6421 9.37089 11.6683 9.41314 11.7039C9.45538 11.7396 9.4893 11.7838 9.51255 11.8335C9.53581 11.8833 9.54785 11.9374 9.54785 11.9921C9.54785 12.0469 9.53581 12.101 9.51255 12.1508C9.4893 12.2005 9.45538 12.2447 9.41314 12.2803C9.37089 12.316 9.32131 12.3422 9.2678 12.3572C9.21429 12.3721 9.15812 12.3755 9.10315 12.3671H7.16953C7.12169 12.3692 7.07391 12.3616 7.02913 12.3449C6.98436 12.3281 6.94351 12.3026 6.90908 12.2698C6.87465 12.2371 6.84736 12.1977 6.82887 12.1543C6.81038 12.1108 6.80109 12.064 6.80155 12.0169V8.73278L6.80078 8.73577Z" fill="white"/>
<path d="M10.2121 9.25301C10.3462 8.13631 12.0581 7.93607 12.8649 8.5458C12.9045 8.56906 12.9389 8.59996 12.966 8.63663C12.9931 8.67331 13.0125 8.715 13.0228 8.75921C13.0332 8.80342 13.0343 8.84923 13.0263 8.8939C13.0182 8.93856 13.001 8.98116 12.9758 9.01914C12.9506 9.05711 12.9178 9.08967 12.8795 9.11487C12.8412 9.14008 12.7981 9.15739 12.7528 9.16579C12.7075 9.17418 12.6609 9.17348 12.6159 9.16373C12.5709 9.15397 12.5284 9.13536 12.4909 9.10902C12.0581 8.83903 11.0768 8.71304 10.9542 9.31001C10.7965 10.2535 13.338 9.7135 13.2969 11.2434C13.2558 12.7044 11.1065 12.7381 10.2997 12.0826C10.2176 12.0152 10.1639 11.9203 10.1488 11.8161C10.1338 11.7119 10.1585 11.606 10.2182 11.5187C10.2476 11.4795 10.2852 11.4469 10.3285 11.4233C10.3718 11.3997 10.4198 11.3855 10.4691 11.3817C10.5185 11.378 10.5681 11.3847 10.6146 11.4015C10.6611 11.4182 10.7034 11.4446 10.7386 11.4789C11.217 11.8007 12.4505 12.0421 12.5373 11.2247C12.4611 10.375 10.0308 10.8849 10.2121 9.25301Z" fill="white"/>
</g>
<defs>
<clipPath id="clip0_3411_40355">
<rect width="16" height="18" fill="white"/>
</clipPath>
</defs>
</svg>
